<svg width="20" height="20" viewBox="0 0 20 20" fill="none" xmlns="http://www.w3.org/2000/svg">
<g id="arrow">
<path id="Vector" d="M12.0624 10L5.93743 3.875C5.7291 3.66667 5.6284 3.42014 5.63535 3.13542C5.64229 2.8507 5.74993 2.60417 5.95826 2.39584C6.1666 2.1875 6.41312 2.08334 6.69785 2.08334C6.98257 2.08334 7.2291 2.1875 7.43743 2.39584L13.8333 8.8125C13.9999 8.97917 14.1249 9.16667 14.2083 9.375C14.2916 9.58334 14.3333 9.79167 14.3333 10C14.3333 10.2083 14.2916 10.4167 14.2083 10.625C14.1249 10.8333 13.9999 11.0208 13.8333 11.1875L7.4166 17.6042C7.20826 17.8125 6.96521 17.9132 6.68743 17.9063C6.40965 17.8993 6.1666 17.7917 5.95826 17.5833C5.74993 17.375 5.64576 17.1285 5.64576 16.8438C5.64576 16.559 5.74993 16.3125 5.95826 16.1042L12.0624 10Z" fill="#424242"/>
</g>
</svg>
