<svg viewBox="0 0 8 8" fill="none" xmlns="http://www.w3.org/2000/svg">
<g id="favorite_24dp_5F6368_FILL0_wght400_GRAD0_opsz24 1">
<path id="Vector" d="M3.99996 6.775C3.92218 6.775 3.84301 6.76111 3.76246 6.73333C3.6819 6.70555 3.61107 6.66111 3.54996 6.6L2.97496 6.075C2.38607 5.53611 1.85413 5.00139 1.37913 4.47083C0.904126 3.94028 0.666626 3.35555 0.666626 2.71666C0.666626 2.19444 0.841626 1.75833 1.19163 1.40833C1.54163 1.05833 1.97774 0.883331 2.49996 0.883331C2.7944 0.883331 3.07218 0.945831 3.33329 1.07083C3.5944 1.19583 3.81663 1.36666 3.99996 1.58333C4.18329 1.36666 4.40551 1.19583 4.66663 1.07083C4.92774 0.945831 5.20551 0.883331 5.49996 0.883331C6.02218 0.883331 6.45829 1.05833 6.80829 1.40833C7.15829 1.75833 7.33329 2.19444 7.33329 2.71666C7.33329 3.35555 7.09718 3.94166 6.62496 4.475C6.15274 5.00833 5.61663 5.54444 5.01663 6.08333L4.44996 6.6C4.38885 6.66111 4.31802 6.70555 4.23746 6.73333C4.1569 6.76111 4.07774 6.775 3.99996 6.775ZM3.68329 2.25C3.52218 2.02222 3.34996 1.84861 3.16663 1.72916C2.98329 1.60972 2.76107 1.55 2.49996 1.55C2.16663 1.55 1.88885 1.66111 1.66663 1.88333C1.4444 2.10555 1.33329 2.38333 1.33329 2.71666C1.33329 3.00555 1.43607 3.3125 1.64163 3.6375C1.84718 3.9625 2.09301 4.27778 2.37913 4.58333C2.66524 4.88889 2.95968 5.175 3.26246 5.44166C3.56524 5.70833 3.81107 5.92778 3.99996 6.1C4.18885 5.92778 4.43468 5.70833 4.73746 5.44166C5.04024 5.175 5.33468 4.88889 5.62079 4.58333C5.9069 4.27778 6.15274 3.9625 6.35829 3.6375C6.56385 3.3125 6.66663 3.00555 6.66663 2.71666C6.66663 2.38333 6.55552 2.10555 6.33329 1.88333C6.11107 1.66111 5.83329 1.55 5.49996 1.55C5.23885 1.55 5.01663 1.60972 4.83329 1.72916C4.64996 1.84861 4.47774 2.02222 4.31663 2.25C4.27774 2.30555 4.23052 2.34722 4.17496 2.375C4.1194 2.40278 4.06107 2.41666 3.99996 2.41666C3.93885 2.41666 3.88052 2.40278 3.82496 2.375C3.7694 2.34722 3.72218 2.30555 3.68329 2.25Z" fill="#424242"/>
</g>
</svg>
