<svg viewBox="0 0 24 24" fill="none" xmlns="http://www.w3.org/2000/svg">
<g id="icon">
<path id="Vector" d="M12 12.9919C11.7167 12.9919 11.4792 12.896 11.2875 12.7044C11.0958 12.5127 11 12.2752 11 11.9919C11 11.7085 11.0958 11.471 11.2875 11.2794C11.4792 11.0877 11.7167 10.9919 12 10.9919C12.2833 10.9919 12.5208 11.0877 12.7125 11.2794C12.9042 11.471 13 11.7085 13 11.9919C13 12.2752 12.9042 12.5127 12.7125 12.7044C12.5208 12.896 12.2833 12.9919 12 12.9919ZM12 21.9919C10.6167 21.9919 9.31667 21.7294 8.1 21.2044C6.88333 20.6794 5.825 19.9669 4.925 19.0669C4.025 18.1669 3.3125 17.1085 2.7875 15.8919C2.2625 14.6752 2 13.3752 2 11.9919C2 10.6085 2.2625 9.30855 2.7875 8.09188C3.3125 6.87522 4.025 5.81688 4.925 4.91688C5.825 4.01688 6.88333 3.30438 8.1 2.77938C9.31667 2.25438 10.6167 1.99188 12 1.99188C13.3833 1.99188 14.6833 2.25438 15.9 2.77938C17.1167 3.30438 18.175 4.01688 19.075 4.91688C19.975 5.81688 20.6875 6.87522 21.2125 8.09188C21.7375 9.30855 22 10.6085 22 11.9919C22 13.3752 21.7375 14.6752 21.2125 15.8919C20.6875 17.1085 19.975 18.1669 19.075 19.0669C18.175 19.9669 17.1167 20.6794 15.9 21.2044C14.6833 21.7294 13.3833 21.9919 12 21.9919ZM12 19.9919C14.2333 19.9919 16.125 19.2169 17.675 17.6669C19.225 16.1169 20 14.2252 20 11.9919C20 9.75855 19.225 7.86688 17.675 6.31688C16.125 4.76688 14.2333 3.99188 12 3.99188C9.76667 3.99188 7.875 4.76688 6.325 6.31688C4.775 7.86688 4 9.75855 4 11.9919C4 14.2252 4.775 16.1169 6.325 17.6669C7.875 19.2169 9.76667 19.9919 12 19.9919ZM12 19.9919C9.76667 19.9919 7.875 19.2169 6.325 17.6669C4.775 16.1169 4 14.2252 4 11.9919C4 9.75855 4.775 7.86688 6.325 6.31688C7.875 4.76688 9.76667 3.99188 12 3.99188C14.2333 3.99188 16.125 4.76688 17.675 6.31688C19.225 7.86688 20 9.75855 20 11.9919C20 14.2252 19.225 16.1169 17.675 17.6669C16.125 19.2169 14.2333 19.9919 12 19.9919ZM13.675 14.1419C13.775 14.0919 13.8667 14.0252 13.95 13.9419C14.0333 13.8585 14.1 13.7669 14.15 13.6669L17.075 7.41688C17.1583 7.25022 17.1375 7.10438 17.0125 6.97938C16.8875 6.85438 16.7417 6.83355 16.575 6.91688L10.325 9.84188C10.225 9.89188 10.1333 9.95855 10.05 10.0419C9.96667 10.1252 9.9 10.2169 9.85 10.3169L6.925 16.5669C6.84167 16.7335 6.8625 16.8794 6.9875 17.0044C7.1125 17.1294 7.25833 17.1502 7.425 17.0669L13.675 14.1419Z" fill="#424242"/>
</g>
</svg>
