<svg viewBox="0 0 8 8" fill="none" xmlns="http://www.w3.org/2000/svg">
<g id="favorite_24dp_5F6368_FILL0_wght400_GRAD0_opsz24 1">
<path id="Vector" d="M3.99996 6.775C3.92218 6.775 3.84302 6.76111 3.76246 6.73333C3.6819 6.70555 3.61107 6.66111 3.54996 6.6L2.97496 6.075C2.38607 5.53611 1.85413 5.00139 1.37913 4.47083C0.904126 3.94028 0.666626 3.35555 0.666626 2.71666C0.666626 2.19444 0.841626 1.75833 1.19163 1.40833C1.54163 1.05833 1.97774 0.883331 2.49996 0.883331C2.7944 0.883331 3.07218 0.945831 3.33329 1.07083C3.5944 1.19583 3.81663 1.36666 3.99996 1.58333C4.18329 1.36666 4.40551 1.19583 4.66663 1.07083C4.92774 0.945831 5.20551 0.883331 5.49996 0.883331C6.02218 0.883331 6.45829 1.05833 6.80829 1.40833C7.15829 1.75833 7.33329 2.19444 7.33329 2.71666C7.33329 3.35555 7.09718 3.94166 6.62496 4.475C6.15274 5.00833 5.61663 5.54444 5.01663 6.08333L4.44996 6.6C4.38885 6.66111 4.31802 6.70555 4.23746 6.73333C4.1569 6.76111 4.07774 6.775 3.99996 6.775Z" fill="#F44336"/>
</g>
</svg>
