<svg viewBox="0 0 24 24" fill="none" xmlns="http://www.w3.org/2000/svg">
<g id="icon">
<path id="Vector" d="M4 18.9919V9.99188C4 9.67522 4.07083 9.37522 4.2125 9.09188C4.35417 8.80855 4.55 8.57522 4.8 8.39188L10.8 3.89188C11.15 3.62522 11.55 3.49188 12 3.49188C12.45 3.49188 12.85 3.62522 13.2 3.89188L19.2 8.39188C19.45 8.57522 19.6458 8.80855 19.7875 9.09188C19.9292 9.37522 20 9.67522 20 9.99188V18.9919C20 19.5419 19.8042 20.0127 19.4125 20.4044C19.0208 20.796 18.55 20.9919 18 20.9919H15C14.7167 20.9919 14.4792 20.896 14.2875 20.7044C14.0958 20.5127 14 20.2752 14 19.9919V14.9919C14 14.7085 13.9042 14.471 13.7125 14.2794C13.5208 14.0877 13.2833 13.9919 13 13.9919H11C10.7167 13.9919 10.4792 14.0877 10.2875 14.2794C10.0958 14.471 10 14.7085 10 14.9919V19.9919C10 20.2752 9.90417 20.5127 9.7125 20.7044C9.52083 20.896 9.28333 20.9919 9 20.9919H6C5.45 20.9919 4.97917 20.796 4.5875 20.4044C4.19583 20.0127 4 19.5419 4 18.9919Z" fill="#424242"/>
</g>
</svg>
