<svg viewBox="0 0 26 26" fill="none" xmlns="http://www.w3.org/2000/svg">
<g id="kakao_logo">
<path id="Vector" d="M12.9746 2.4375C15.2011 2.4375 17.2604 2.87083 19.1525 3.73748C21.0445 4.60413 22.5403 5.78261 23.6398 7.27289C24.7393 8.76312 25.2891 10.3887 25.2891 12.1495C25.2891 13.9103 24.7393 15.5381 23.6398 17.033C22.5403 18.5279 21.0468 19.7087 19.1593 20.5753C17.2718 21.4419 15.2103 21.8753 12.9746 21.8753C12.2691 21.8753 11.5406 21.8248 10.7893 21.724C7.52746 23.9892 5.7912 25.1355 5.58045 25.163C5.47965 25.1997 5.38342 25.1951 5.29181 25.1493C5.25515 25.1218 5.22768 25.0851 5.20934 25.0392C5.19101 24.9934 5.18187 24.9521 5.18187 24.9154V24.8604C5.23687 24.5027 5.65373 23.0125 6.43256 20.3896C4.66419 19.5092 3.26002 18.3422 2.22008 16.8886C1.18013 15.435 0.660156 13.8553 0.660156 12.1495C0.660156 10.3887 1.20991 8.76312 2.30941 7.27289C3.40892 5.78261 4.9047 4.60413 6.79677 3.73748C8.68882 2.87083 10.7481 2.4375 12.9746 2.4375Z" fill="#212121"/>
</g>
</svg>
