<svg viewBox="0 0 20 20" fill="none" xmlns="http://www.w3.org/2000/svg">
<g id="icon">
<path id="Vector" d="M2.5 15.8333C2.26389 15.8333 2.06597 15.7535 1.90625 15.5937C1.74653 15.434 1.66666 15.2361 1.66666 15C1.66666 14.7639 1.74653 14.566 1.90625 14.4062C2.06597 14.2465 2.26389 14.1667 2.5 14.1667H9.16666C9.40278 14.1667 9.60069 14.2465 9.76041 14.4062C9.92014 14.566 10 14.7639 10 15C10 15.2361 9.92014 15.434 9.76041 15.5937C9.60069 15.7535 9.40278 15.8333 9.16666 15.8333H2.5ZM2.5 11.6667C2.26389 11.6667 2.06597 11.5868 1.90625 11.4271C1.74653 11.2674 1.66666 11.0694 1.66666 10.8333C1.66666 10.5972 1.74653 10.3993 1.90625 10.2396C2.06597 10.0799 2.26389 10 2.5 10H5C5.23611 10 5.43403 10.0799 5.59375 10.2396C5.75347 10.3993 5.83333 10.5972 5.83333 10.8333C5.83333 11.0694 5.75347 11.2674 5.59375 11.4271C5.43403 11.5868 5.23611 11.6667 5 11.6667H2.5ZM2.5 7.5C2.26389 7.5 2.06597 7.42014 1.90625 7.26042C1.74653 7.10069 1.66666 6.90278 1.66666 6.66667C1.66666 6.43056 1.74653 6.23264 1.90625 6.07292C2.06597 5.91319 2.26389 5.83333 2.5 5.83333H5C5.23611 5.83333 5.43403 5.91319 5.59375 6.07292C5.75347 6.23264 5.83333 6.43056 5.83333 6.66667C5.83333 6.90278 5.75347 7.10069 5.59375 7.26042C5.43403 7.42014 5.23611 7.5 5 7.5H2.5ZM11.6667 13.3333C10.5139 13.3333 9.53125 12.9271 8.71875 12.1146C7.90625 11.3021 7.5 10.3194 7.5 9.16667C7.5 8.01389 7.90625 7.03125 8.71875 6.21875C9.53125 5.40625 10.5139 5 11.6667 5C12.8194 5 13.8021 5.40625 14.6146 6.21875C15.4271 7.03125 15.8333 8.01389 15.8333 9.16667C15.8333 9.56944 15.7743 9.96875 15.6562 10.3646C15.5382 10.7604 15.3611 11.125 15.125 11.4583L17.75 14.0833C17.9028 14.2361 17.9792 14.4306 17.9792 14.6667C17.9792 14.9028 17.9028 15.0972 17.75 15.25C17.5972 15.4028 17.4028 15.4792 17.1667 15.4792C16.9306 15.4792 16.7361 15.4028 16.5833 15.25L13.9583 12.625C13.625 12.8611 13.2604 13.0382 12.8646 13.1562C12.4687 13.2743 12.0694 13.3333 11.6667 13.3333ZM11.6667 11.6667C12.3611 11.6667 12.9514 11.4236 13.4375 10.9375C13.9236 10.4514 14.1667 9.86111 14.1667 9.16667C14.1667 8.47222 13.9236 7.88194 13.4375 7.39583C12.9514 6.90972 12.3611 6.66667 11.6667 6.66667C10.9722 6.66667 10.3819 6.90972 9.89583 7.39583C9.40972 7.88194 9.16666 8.47222 9.16666 9.16667C9.16666 9.86111 9.40972 10.4514 9.89583 10.9375C10.3819 11.4236 10.9722 11.6667 11.6667 11.6667Z" fill="#424242"/>
</g>
</svg>
