<svg viewBox="0 0 128 128" fill="none" xmlns="http://www.w3.org/2000/svg">
<g id="icon">
<path id="Vector" d="M12.71 56.61C12.71 56.61 12 82.09 12 85.61C12 89.13 11.69 92.75 14.48 94.92C16.17 96.24 23.96 102.1 34.35 107.96C44.74 113.82 58.62 120.79 61.47 121.96C64.32 123.13 67.58 122.48 71.24 121.12C74.59 119.88 82.08 116.09 92.97 110.56C103.86 105.03 108.87 102.24 111.91 99.83C114.21 98.01 116.43 95.64 116.1 91.45C115.76 87.26 115.86 77.74 115.53 73.72C115.19 69.7 114.93 54.99 114.93 54.99L123.89 38.54C123.89 38.54 123.67 35.11 122.89 32.99C121.73 29.83 119.58 28.13 119.58 28.13L48.91 15.74C48.91 15.74 12.84 24.26 10.84 25.42C8.84001 26.58 3.65001 30.89 3.79001 38.57C4.00001 49.6 12.71 56.61 12.71 56.61Z" fill="#E07F14"/>
<path id="Vector_2" d="M17.39 55.09C17.39 55.09 16.06 84.44 16.77 88.67C17.36 92.21 28.17 98.52 36.05 103.02C43.15 107.08 58.2 113.45 60.26 114.43C62.32 115.41 63.3 113.56 63.3 111.93C63.3 110.3 63.41 75.04 63.41 75.04C63.41 75.04 72.57 73.41 74.3 65.27C76.03 57.13 66.73 44.25 41.81 34.57C16.09 24.6 8.55003 30.39 8.25003 37.57C7.82003 48.21 17.39 55.09 17.39 55.09Z" fill="#FFEBCA"/>
<path id="Vector_3" d="M81.46 57.13C81.46 57.13 84.36 67.34 79.01 72.99C73.59 78.71 69.03 79.72 69.03 79.72C69.03 79.72 68.66 84.33 68.88 84.87C69.39 86.14 85.41 79.61 95.5 75.38C104.39 71.65 115.14 67.14 115.14 67.14C115.14 67.14 114.81 62.15 115.14 62.26C115.47 62.37 120.67 57.27 122.52 50.65C124.36 44.03 123.9 38.57 123.9 38.57C123.9 38.57 107.27 45.51 101.48 48.15C95.94 50.67 83.98 55.75 81.46 57.13Z" fill="#AC5811"/>
<path id="Vector_4" d="M76.94 48.77C77.6 49.49 121.55 30.35 121.55 30.35C121.55 30.35 106.58 6.80001 68.93 6.16001C30.42 5.50001 8.62 26.29 8.16 27.55C7.8 28.53 15.12 18.96 39.64 26.88C64.16 34.8 73.32 44.85 76.94 48.77Z" fill="#F5B03E"/>
</g>
</svg>
