<svg viewBox="0 0 120 120" fill="none" xmlns="http://www.w3.org/2000/svg">
<g id="icon">
<path id="Vector" d="M11.9156 53.0719C11.9156 53.0719 11.25 76.9594 11.25 80.2594C11.25 83.5594 10.9594 86.9531 13.575 88.9875C15.1594 90.225 22.4625 95.7188 32.2031 101.213C41.9437 106.706 54.9562 113.241 57.6281 114.338C60.3 115.434 63.3562 114.825 66.7875 113.55C69.9281 112.388 76.95 108.834 87.1594 103.65C97.3687 98.4656 102.066 95.85 104.916 93.5906C107.072 91.8844 109.153 89.6625 108.844 85.7344C108.525 81.8063 108.619 72.8813 108.309 69.1125C107.991 65.3438 107.747 51.5531 107.747 51.5531L116.147 36.1313C116.147 36.1313 115.941 32.9156 115.209 30.9281C114.122 27.9656 112.106 26.3719 112.106 26.3719L45.8531 14.7563C45.8531 14.7563 12.0375 22.7438 10.1625 23.8313C8.28749 24.9188 3.42186 28.9594 3.55311 36.1594C3.74999 46.5 11.9156 53.0719 11.9156 53.0719Z" fill="#E07F14"/>
<path id="Vector_2" d="M16.3031 51.6469C16.3031 51.6469 15.0563 79.1625 15.7219 83.1281C16.275 86.4469 26.4094 92.3625 33.7969 96.5812C40.4531 100.387 54.5625 106.359 56.4938 107.278C58.425 108.197 59.3438 106.462 59.3438 104.934C59.3438 103.406 59.4469 70.35 59.4469 70.35C59.4469 70.35 68.0344 68.8219 69.6563 61.1906C71.2781 53.5594 62.5594 41.4844 39.1969 32.4094C15.0844 23.0625 8.01563 28.4906 7.73438 35.2219C7.33126 45.1969 16.3031 51.6469 16.3031 51.6469Z" fill="#FFEBCA"/>
<path id="Vector_3" d="M76.3688 53.5594C76.3688 53.5594 79.0875 63.1312 74.0719 68.4281C68.9906 73.7906 64.7156 74.7375 64.7156 74.7375C64.7156 74.7375 64.3688 79.0594 64.575 79.5656C65.0531 80.7562 80.0719 74.6344 89.5313 70.6687C97.8656 67.1719 107.944 62.9437 107.944 62.9437C107.944 62.9437 107.634 58.2656 107.944 58.3687C108.253 58.4719 113.128 53.6906 114.863 47.4844C116.588 41.2781 116.156 36.1594 116.156 36.1594C116.156 36.1594 100.566 42.6656 95.1375 45.1406C89.9438 47.5031 78.7313 52.2656 76.3688 53.5594Z" fill="#AC5811"/>
<path id="Vector_4" d="M72.1313 45.7219C72.75 46.3969 113.953 28.4531 113.953 28.4531C113.953 28.4531 99.9187 6.37501 64.6219 5.77501C28.5187 5.15626 8.08125 24.6469 7.65 25.8281C7.3125 26.7469 14.175 17.775 37.1625 25.2C60.15 32.625 68.7375 42.0469 72.1313 45.7219Z" fill="#F5B03E"/>
</g>
</svg>
