<svg viewBox="0 0 24 24" fill="none" xmlns="http://www.w3.org/2000/svg">
<g id="icon">
<path id="Vector" d="M1 17.1919C1 16.6252 1.14583 16.1044 1.4375 15.6294C1.72917 15.1544 2.11667 14.7919 2.6 14.5419C3.63333 14.0252 4.68333 13.6377 5.75 13.3794C6.81667 13.121 7.9 12.9919 9 12.9919C10.1 12.9919 11.1833 13.121 12.25 13.3794C13.3167 13.6377 14.3667 14.0252 15.4 14.5419C15.8833 14.7919 16.2708 15.1544 16.5625 15.6294C16.8542 16.1044 17 16.6252 17 17.1919V17.9919C17 18.5419 16.8042 19.0127 16.4125 19.4044C16.0208 19.796 15.55 19.9919 15 19.9919H3C2.45 19.9919 1.97917 19.796 1.5875 19.4044C1.19583 19.0127 1 18.5419 1 17.9919V17.1919ZM18.45 19.9919C18.6333 19.6919 18.7708 19.371 18.8625 19.0294C18.9542 18.6877 19 18.3419 19 17.9919V16.9919C19 16.2585 18.7958 15.5544 18.3875 14.8794C17.9792 14.2044 17.4 13.6252 16.65 13.1419C17.5 13.2419 18.3 13.4127 19.05 13.6544C19.8 13.896 20.5 14.1919 21.15 14.5419C21.75 14.8752 22.2083 15.246 22.525 15.6544C22.8417 16.0627 23 16.5085 23 16.9919V17.9919C23 18.5419 22.8042 19.0127 22.4125 19.4044C22.0208 19.796 21.55 19.9919 21 19.9919H18.45ZM9 11.9919C7.9 11.9919 6.95833 11.6002 6.175 10.8169C5.39167 10.0335 5 9.09188 5 7.99188C5 6.89188 5.39167 5.95022 6.175 5.16688C6.95833 4.38355 7.9 3.99188 9 3.99188C10.1 3.99188 11.0417 4.38355 11.825 5.16688C12.6083 5.95022 13 6.89188 13 7.99188C13 9.09188 12.6083 10.0335 11.825 10.8169C11.0417 11.6002 10.1 11.9919 9 11.9919ZM19 7.99188C19 9.09188 18.6083 10.0335 17.825 10.8169C17.0417 11.6002 16.1 11.9919 15 11.9919C14.8167 11.9919 14.5833 11.971 14.3 11.9294C14.0167 11.8877 13.7833 11.8419 13.6 11.7919C14.05 11.2585 14.3958 10.6669 14.6375 10.0169C14.8792 9.36688 15 8.69188 15 7.99188C15 7.29188 14.8792 6.61688 14.6375 5.96688C14.3958 5.31688 14.05 4.72522 13.6 4.19188C13.8333 4.10855 14.0667 4.05438 14.3 4.02938C14.5333 4.00438 14.7667 3.99188 15 3.99188C16.1 3.99188 17.0417 4.38355 17.825 5.16688C18.6083 5.95022 19 6.89188 19 7.99188Z" fill="#424242"/>
</g>
</svg>
