<svg width="218" height="19" viewBox="0 0 218 19" fill="none" xmlns="http://www.w3.org/2000/svg">
<g id="&#236;&#149;&#148;&#234;&#184;&#176;&#234;&#176;&#128; &#235;&#141;&#148; &#236;&#157;&#180;&#236;&#131;&#129; &#236;&#167;&#128;&#234;&#178;&#185;&#236;&#167;&#128; &#236;&#149;&#138;&#235;&#143;&#132;&#235;&#161;&#157; 1" clip-path="url(#clip0_8_394)">
<g id="svgGroup">
<path id="0" fill-rule="evenodd" clip-rule="evenodd" d="M15.8548 8.50569H15.7953C15.7056 8.50588 15.616 8.50418 15.5264 8.50057C15.1673 8.48521 14.963 8.43612 14.9134 8.35329C14.9088 8.3456 14.9054 8.33723 14.9035 8.32848C14.9035 8.98479 14.8705 9.46389 14.8044 9.76579C14.7647 9.95235 14.702 10.1333 14.6177 10.3047C14.529 10.4841 14.4113 10.6479 14.2693 10.7896C14.5864 11.0784 14.745 11.4591 14.745 11.9316V16.3616C14.7465 16.5207 14.7253 16.6792 14.6821 16.8324C14.6144 17.0704 14.4778 17.2832 14.2891 17.4445C13.6814 17.9302 12.8853 18.3109 11.901 18.5865C11.0778 18.8142 10.2311 18.948 9.3774 18.9854C9.1717 18.9952 8.9658 19 8.75987 19C8.68555 19 8.61123 18.9996 8.53691 18.9988C8.32882 18.9963 8.16532 18.9901 8.04641 18.9803C7.54482 18.9498 7.04662 18.8782 6.55688 18.7663C6.02721 18.6417 5.55606 18.469 5.14345 18.2481C4.7647 18.0484 4.4201 17.7905 4.12242 17.4839C3.61377 17.2026 3.17824 16.8072 2.85049 16.3292C2.63071 16.0005 2.4647 15.6393 2.3586 15.2591C2.29191 15.02 2.24211 14.7767 2.20957 14.5308C2.16359 14.1943 2.1406 13.8267 2.1406 13.428C2.14311 12.5666 2.23973 11.708 2.42876 10.8674C2.45643 10.7426 2.48589 10.6182 2.51715 10.4943C2.53757 10.4282 2.56199 10.3635 2.59027 10.3003C2.64299 10.1843 2.70449 10.0914 2.77478 10.0217C2.55018 9.87736 2.32557 9.68703 2.10096 9.45076C1.42715 9.07011 0.908571 8.5385 0.545238 7.85594C0.312255 7.41176 0.153997 6.9327 0.0767367 6.43774C0.0245835 6.11237 -0.000999234 5.78334 0.000238613 5.45387C-0.00282768 4.97082 0.054624 4.48926 0.171269 4.02031C0.272096 3.62062 0.424435 3.23553 0.624511 2.8746C1.04069 2.12641 1.62533 1.54558 2.37842 1.13211C2.93568 0.8298 3.5459 0.635938 4.17632 0.560929C4.4411 0.527766 4.70773 0.511391 4.9746 0.511903C5.37897 0.510127 5.78255 0.547716 6.17954 0.624131C6.46816 0.680311 6.75131 0.761342 7.02578 0.866308C7.64014 1.10258 8.16532 1.44386 8.60132 1.89014C9.03732 2.13954 9.41387 2.45456 9.73096 2.83522V0.885997C9.73036 0.80006 9.73819 0.714269 9.75434 0.629841C9.7739 0.531002 9.80587 0.443451 9.85026 0.367188C9.8801 0.31574 9.91661 0.268409 9.95887 0.226411C10.0928 0.0933128 10.2808 0.0188879 10.5229 0.00313664C10.5561 0.00100892 10.5895 -4.17243e-05 10.6228 -1.3615e-05H12.446C12.5916 -0.000851116 12.7368 0.0146707 12.8789 0.0462558C13.0185 0.077481 13.1531 0.128191 13.2784 0.196878C13.5162 0.328138 13.7012 0.511903 13.8333 0.748173C14.1636 0.840055 14.4246 1.01726 14.6161 1.27978C14.766 1.48722 14.8598 1.72936 14.8886 1.98307C14.8986 2.06328 14.9036 2.14403 14.9035 2.22486V3.50465C15.1134 3.54951 15.3151 3.62593 15.5018 3.73127C15.7412 3.8684 15.9439 4.06081 16.0926 4.29221C16.453 4.40697 16.7624 4.64202 16.9684 4.95751C16.9738 4.96541 16.9791 4.97335 16.9844 4.98133C17.1222 5.19021 17.2199 5.42256 17.2728 5.66671C17.314 5.84811 17.3366 6.04402 17.3405 6.25443C17.3409 6.27635 17.3411 6.29827 17.3411 6.32019C17.3411 6.91087 17.1958 7.46216 16.9051 7.97408C16.864 8.05214 16.8134 8.12494 16.7545 8.19086C16.6805 8.2738 16.5901 8.34075 16.4889 8.38755C16.3399 8.45581 16.1612 8.49453 15.9527 8.50372C15.9201 8.50508 15.8874 8.50574 15.8548 8.50569ZM12.9613 15.9482V11.2425C12.9613 10.918 12.8268 10.7229 12.5578 10.6571C12.4822 10.6396 12.4048 10.6312 12.3271 10.6321H3.40896C3.15793 11.5641 3.03242 12.5157 3.03242 13.487C3.03242 14.0515 3.09187 14.5634 3.21078 15.0228C3.42217 15.7447 3.86478 16.3059 4.5386 16.7062C5.06827 17.021 5.73271 17.2323 6.53191 17.3402C6.75838 17.3704 6.98593 17.392 7.21405 17.4052C7.33534 17.4153 7.4993 17.4215 7.70594 17.4239C7.77318 17.4246 7.84044 17.4249 7.90769 17.4249C8.53674 17.4271 9.16485 17.3763 9.78526 17.2731C10.1415 17.2128 10.494 17.132 10.8408 17.0311C11.158 16.9398 11.4687 16.8272 11.7706 16.6942C12.0912 16.5514 12.3772 16.3907 12.6288 16.2122C12.7445 16.1304 12.8555 16.0422 12.9613 15.9482ZM13.1199 6.93056H15.2008C15.4386 6.5499 15.5575 6.11674 15.5575 5.63107C15.5577 5.55064 15.5545 5.47024 15.5478 5.39008C15.5335 5.22587 15.5037 5.08962 15.4584 4.98133C15.4196 4.88567 15.3677 4.79582 15.304 4.71435C15.2323 4.6231 15.1434 4.54659 15.0422 4.48911C14.8573 4.3841 14.593 4.33159 14.2495 4.33159C13.9588 4.33159 13.5823 4.37097 13.1199 4.44973V1.53574C13.1199 1.19026 12.977 0.982539 12.6912 0.912577C12.6108 0.89397 12.5285 0.885046 12.446 0.885997H10.6228V9.84455C10.6997 9.85044 10.7767 9.85602 10.8537 9.86128C11.0752 9.87638 11.2361 9.88392 11.3362 9.88392C11.482 9.88449 11.6278 9.87726 11.7728 9.86227C12.0682 9.83037 12.3086 9.76349 12.494 9.66163C12.5079 9.65398 12.5217 9.64604 12.5352 9.63781C12.7708 9.496 12.9415 9.26848 13.0109 9.00362C13.0226 8.9628 13.0325 8.92147 13.0406 8.87978C13.0563 8.81498 13.0685 8.74939 13.0771 8.68328C13.0962 8.54349 13.1089 8.37016 13.1151 8.16329C13.1183 8.05431 13.1199 7.94528 13.1199 7.83626V6.93056ZM1.60234 7.87977C1.71316 8.0238 1.83694 8.15752 1.97215 8.27926C2.38962 8.64949 2.88875 8.91716 3.42938 9.06072C3.88876 9.18949 4.40383 9.25387 4.9746 9.25387C5.37608 9.25662 5.77685 9.21982 6.17102 9.14401C6.64732 9.04884 7.0703 8.89198 7.43998 8.67344C7.63186 8.56028 7.81179 8.42822 7.97705 8.27926C8.43428 7.86117 8.75713 7.3183 8.90513 6.7187C8.99379 6.38582 9.04366 6.02144 9.05476 5.62556C9.05635 5.56835 9.05715 5.51111 9.05714 5.45387C9.06081 5.02148 9.00879 4.5904 8.90236 4.17113C8.74376 3.54015 8.41733 2.96313 7.95723 2.5005C7.43377 1.98086 6.76395 1.63121 6.03626 1.49774C5.68661 1.42937 5.33095 1.39593 4.9746 1.39791C4.53922 1.39423 4.10519 1.44638 3.68325 1.55306C3.04714 1.71269 2.46622 2.04003 2.00187 2.5005C1.46539 3.03772 1.10853 3.7261 0.97985 4.47198C0.919844 4.79584 0.890451 5.12457 0.892056 5.45387C0.892056 6.4546 1.12882 7.26324 1.60234 7.87977ZM5.45023 12.6995H10.5237V14.7471C10.3946 14.8194 10.2594 14.8806 10.1198 14.9299C9.98608 14.9779 9.84088 15.02 9.68419 15.0561C9.61095 15.0729 9.53734 15.088 9.46341 15.1015C9.10986 15.1655 8.75202 15.2033 8.39283 15.2148C8.29721 15.218 8.20154 15.2197 8.10587 15.2197C7.90291 15.2202 7.7 15.2126 7.49765 15.197C7.21887 15.1748 6.96579 15.1365 6.73841 15.0818C6.40917 15.0001 6.14486 14.8806 5.94549 14.7235C5.85956 14.6564 5.78299 14.5783 5.71778 14.4912C5.56201 14.2816 5.46543 14.0035 5.42804 13.6571C5.41603 13.5418 5.41021 13.4258 5.4106 13.3098C5.4106 13.1917 5.42381 12.9882 5.45023 12.6995ZM6.5652 6.01718C6.61723 5.78046 6.6421 5.53864 6.63932 5.29636C6.63932 4.64006 6.49069 4.14126 6.19341 3.79999C6.01304 3.5902 5.77492 3.43732 5.5083 3.36013C5.33484 3.31062 5.15507 3.28634 4.9746 3.28807C4.87046 3.28777 4.76645 3.29527 4.66345 3.31051C4.31497 3.35512 3.9953 3.5259 3.76569 3.79014C3.65265 3.92257 3.56306 4.0731 3.50072 4.23531C3.44074 4.38679 3.39648 4.55651 3.36794 4.74447C3.34142 4.92724 3.32864 5.11171 3.32969 5.29636C3.32969 6.26139 3.6446 6.86073 4.27442 7.09437C4.49922 7.17287 4.73636 7.21074 4.9746 7.2062C5.1136 7.20696 5.2524 7.19556 5.38939 7.17214C6.01974 7.0607 6.41168 6.67571 6.5652 6.01718ZM5.11332 5.98548L5.13314 6.32019C5.19746 6.3132 5.26084 6.29941 5.32221 6.27904C5.44931 6.23573 5.54483 6.16412 5.60878 6.06423C5.63827 6.01637 5.66133 5.96487 5.67735 5.91105C5.7113 5.80329 5.73291 5.66573 5.74216 5.49837C5.7458 5.43109 5.74759 5.36373 5.74751 5.29636C5.74751 5.14081 5.74334 5.01809 5.73502 4.92817C5.73313 4.90646 5.73069 4.88479 5.72769 4.8632C5.65128 4.87178 5.57686 4.89301 5.50751 4.92601C5.40384 4.97702 5.31822 5.05811 5.26196 5.15854C5.22856 5.21789 5.20248 5.28102 5.18427 5.34657C5.14741 5.4731 5.12489 5.62996 5.11669 5.81714C5.11434 5.87322 5.11322 5.92935 5.11332 5.98548Z" fill="#C97212"/>
<path id="1" fill-rule="evenodd" clip-rule="evenodd" d="M28.3005 18.0943H28.2411C27.7654 18.0503 27.4889 17.8224 27.4115 17.4105C27.3959 17.3243 27.3883 17.2368 27.3889 17.1492V5.88705C27.2436 7.55406 26.7184 9.14231 25.8134 10.6518C24.9083 12.1613 23.7424 13.4017 22.3154 14.3731C21.6681 14.8193 21.0603 15.0425 20.4922 15.0425C20.3336 15.0425 20.1751 15.0228 20.0165 14.9834C19.4748 14.8784 19.0322 14.6028 18.6887 14.1565C18.1991 13.9517 17.7912 13.5659 17.465 12.9992C17.4566 12.9846 17.4483 12.9701 17.4402 12.9554C17.3477 12.7717 17.3015 12.5813 17.3015 12.3845C17.3018 12.3353 17.3057 12.2862 17.3131 12.2376C17.3279 12.1366 17.3571 12.0215 17.4005 11.8922C17.4436 11.7793 17.5004 11.6721 17.5696 11.5729C17.5999 11.5297 17.6328 11.4884 17.6681 11.4492C17.7804 11.3245 17.929 11.1965 18.114 11.0653C18.9992 10.4484 19.7688 9.7494 20.4228 8.96839C20.7655 8.56239 21.0738 8.12893 21.3446 7.67246C21.5519 7.32174 21.7308 6.95515 21.8794 6.57617H20.1354C19.9898 6.57708 19.8446 6.56163 19.7024 6.53009C19.5628 6.49879 19.4284 6.44801 19.3031 6.37928C19.0653 6.24802 18.8869 6.06425 18.768 5.82798C18.6208 5.78992 18.4799 5.73083 18.3498 5.65255C18.2029 5.56316 18.0755 5.44539 17.9753 5.30622C17.8431 5.12119 17.7564 4.90797 17.7222 4.68365C17.7056 4.58025 17.6974 4.47569 17.6978 4.37099V2.83523C17.6972 2.7493 17.7051 2.66351 17.7212 2.57908C17.7408 2.48024 17.7727 2.39269 17.8171 2.31643C17.847 2.26498 17.8835 2.21765 17.9257 2.17565C18.0597 2.04255 18.2477 1.96813 18.4897 1.95237C18.523 1.95025 18.5563 1.9492 18.5896 1.94922H25.0305C25.167 1.94853 25.3032 1.96052 25.4374 1.98506C25.5926 2.01304 25.7427 2.06402 25.8827 2.13627C26.1205 2.26097 26.2923 2.44802 26.398 2.69741C26.5664 2.73164 26.7271 2.7961 26.8722 2.88761C27.0941 3.03147 27.2508 3.24011 27.3423 3.51352C27.3608 3.56879 27.3764 3.62498 27.3889 3.68187V0.886012C27.3883 0.800075 27.3961 0.714284 27.4123 0.629856C27.4318 0.531017 27.4638 0.443466 27.5082 0.367204C27.538 0.315755 27.5746 0.268424 27.6168 0.226426C27.7508 0.0933281 27.9388 0.0189032 28.1808 0.0031519C28.2141 0.00102418 28.2474 -2.64655e-05 28.2807 1.64377e-06H30.1436C30.2892 -0.000835857 30.4344 0.0146859 30.5765 0.0462711C30.7161 0.0774963 30.8506 0.128207 30.976 0.196893C31.2138 0.328154 31.3988 0.511919 31.5309 0.748188C31.8612 0.840071 32.1221 1.01727 32.3137 1.27979C32.4636 1.48723 32.5574 1.72937 32.5862 1.98309C32.5962 2.0633 32.6012 2.14405 32.6011 2.22487V15.4166V16.0959C32.6015 16.2974 32.591 16.4987 32.5696 16.6991C32.5541 16.8436 32.5315 16.9872 32.502 17.1295C32.4409 17.4635 32.2922 17.7756 32.0709 18.0342C31.8496 18.2929 31.5636 18.489 31.2417 18.6029C30.9786 18.7037 30.6765 18.7698 30.3355 18.8013C30.1728 18.816 30.0096 18.8231 29.8463 18.8228C29.7376 18.8228 29.5575 18.8139 29.3059 18.7962C29.2482 18.7921 29.1906 18.7879 29.1329 18.7834C29.0208 18.7755 28.9103 18.7525 28.8045 18.7151C28.5273 18.613 28.3593 18.406 28.3005 18.0943ZM25.6449 4.31192V3.36684C25.6452 3.31854 25.6417 3.27028 25.6344 3.22252C25.615 3.10097 25.5689 3.01126 25.4963 2.95337C25.4556 2.92201 25.4099 2.89771 25.3611 2.8815C25.2784 2.85263 25.1765 2.83727 25.0553 2.83543C25.0471 2.8353 25.0388 2.83524 25.0305 2.83523H18.5896V4.37099C18.5883 4.45656 18.5996 4.54186 18.6231 4.62419C18.6795 4.80966 18.807 4.92668 19.0056 4.97524C19.0836 4.9933 19.1635 5.00196 19.2436 5.00104H23.1676C23.1125 5.66166 22.9558 6.30999 22.7031 6.92348C22.5032 7.42122 22.2408 7.92553 21.9159 8.43639C21.8399 8.55606 21.7616 8.67435 21.6813 8.79119C20.7828 10.0972 19.5805 11.2162 18.0744 12.1482C18.1404 12.3976 18.2527 12.6273 18.4113 12.8373C18.4957 12.9505 18.5939 13.0528 18.7038 13.1419C18.7849 13.2071 18.8729 13.2634 18.9662 13.3098C19.1511 13.4017 19.3625 13.4477 19.6004 13.4477C19.7775 13.4458 19.9533 13.4168 20.1216 13.3616C20.3747 13.2818 20.6436 13.1464 20.9282 12.9554C22.1193 12.1323 23.135 11.0835 23.917 9.86937C24.0531 9.66139 24.1832 9.44958 24.3072 9.2342C25.199 7.68532 25.6449 6.04456 25.6449 4.31192ZM28.2807 0.886012V17.2083C28.6242 17.2345 28.8687 17.2477 29.014 17.2477C29.1601 17.2482 29.3061 17.241 29.4514 17.226C29.759 17.1931 30.0089 17.1224 30.2013 17.014C30.2085 17.0099 30.2157 17.0058 30.2229 17.0016C30.3482 16.9283 30.457 16.8303 30.5425 16.7135C30.6281 16.5968 30.6886 16.4638 30.7203 16.3229C30.727 16.2966 30.733 16.2701 30.7382 16.2435C30.791 16.0335 30.8174 15.6725 30.8174 15.1606V14.2155V1.53575C30.8174 1.19027 30.6746 0.982554 30.3888 0.912592C30.3084 0.893985 30.2261 0.885061 30.1436 0.886012H28.2807Z" fill="#C97212"/>
<path id="2" fill-rule="evenodd" clip-rule="evenodd" d="M43.8974 18.0943H43.838C43.3624 18.0503 43.0858 17.8224 43.0084 17.4105C42.9928 17.3243 42.9852 17.2368 42.9858 17.1492V9.01762C42.5366 10.0677 41.9321 11.0423 41.1724 11.9415C40.4128 12.8406 39.5308 13.6117 38.5267 14.2549C38.0219 14.5723 37.5412 14.7659 37.0846 14.8358C36.9585 14.8552 36.8311 14.8651 36.7035 14.8653C36.3335 14.8653 35.9768 14.78 35.6333 14.6093C35.3426 14.4649 35.0982 14.2549 34.9 13.9793L34.7415 13.9202C34.2922 13.6839 33.9289 13.2902 33.6515 12.7389C33.6106 12.6589 33.5777 12.5752 33.553 12.489C33.5267 12.3973 33.5132 12.3026 33.5127 12.2073C33.5127 12.0104 33.5524 11.8266 33.6316 11.656C33.6747 11.5431 33.7315 11.4358 33.8007 11.3366C33.831 11.2935 33.8639 11.2522 33.8992 11.213C33.9501 11.157 34.0053 11.1048 34.0641 11.057C34.1231 11.0084 34.189 10.9605 34.2617 10.9131C34.2956 10.8909 34.33 10.8695 34.3649 10.8487C35.2501 10.2712 36.0296 9.60829 36.7035 8.8601C37.0357 8.49382 37.34 8.10349 37.6139 7.69234C37.8499 7.33787 38.0557 6.96453 38.2294 6.57617H36.3467C36.2011 6.57708 36.0558 6.56163 35.9137 6.53009C35.7741 6.49879 35.6396 6.44801 35.5144 6.37928C35.2765 6.24802 35.0982 6.06425 34.9793 5.82798C34.8321 5.78992 34.6912 5.73083 34.5611 5.65255C34.4142 5.56316 34.2868 5.44539 34.1865 5.30622C34.0544 5.12119 33.9677 4.90797 33.9335 4.68365C33.9169 4.58025 33.9087 4.47569 33.9091 4.37099V2.83523C33.9085 2.7493 33.9163 2.66351 33.9325 2.57908C33.952 2.48024 33.984 2.39269 34.0284 2.31643C34.0582 2.26498 34.0947 2.21765 34.137 2.17565C34.271 2.04255 34.459 1.96813 34.701 1.95237C34.7343 1.95025 34.7676 1.9492 34.8009 1.94922H41.44C41.5764 1.94853 41.7127 1.96052 41.8469 1.98506C42.0021 2.01304 42.1522 2.06402 42.2922 2.13627C42.53 2.26097 42.7017 2.44802 42.8074 2.69741L42.9858 2.73679V0.886012C42.9852 0.800075 42.993 0.714284 43.0092 0.629856C43.0287 0.531017 43.0607 0.443466 43.1051 0.367204C43.135 0.315755 43.1715 0.268424 43.2137 0.226426C43.3477 0.0933281 43.5357 0.0189032 43.7777 0.0031519C43.811 0.00102418 43.8443 -2.64655e-05 43.8776 1.64377e-06H45.7405C45.8861 -0.000835857 46.0313 0.0146859 46.1734 0.0462711C46.313 0.0774963 46.4475 0.128207 46.5729 0.196893C46.8107 0.328154 46.9957 0.511919 47.1278 0.748188C47.4581 0.840071 47.719 1.01727 47.9106 1.27979C48.0605 1.48723 48.1543 1.72937 48.1831 1.98309C48.1931 2.0633 48.1981 2.14405 48.198 2.22487V6.02487C48.4079 6.06973 48.6096 6.14615 48.7963 6.25149C49.0357 6.38863 49.2383 6.58103 49.3871 6.81244C49.7475 6.9272 50.0569 7.16224 50.2628 7.47773C50.2682 7.48564 50.2736 7.49358 50.2789 7.50155C50.4167 7.71043 50.5144 7.94278 50.5672 8.18693C50.6085 8.36834 50.6311 8.56424 50.635 8.77465C50.6354 8.79657 50.6356 8.81849 50.6356 8.84042C50.6356 9.43109 50.4903 9.98238 50.1996 10.4943C50.1585 10.5724 50.1079 10.6452 50.049 10.7111C49.975 10.794 49.8846 10.861 49.7834 10.9078C49.6344 10.976 49.4556 11.0148 49.2472 11.0239C49.2145 11.0253 49.1819 11.026 49.1493 11.0259H48.198V15.4166V16.0959C48.1984 16.2974 48.1879 16.4987 48.1665 16.6991C48.151 16.8436 48.1284 16.9872 48.0989 17.1295C48.0378 17.4635 47.8891 17.7756 47.6678 18.0342C47.4466 18.2929 47.1606 18.489 46.8387 18.6029C46.5755 18.7037 46.2734 18.7698 45.9324 18.8013C45.7698 18.816 45.6065 18.8231 45.4433 18.8228C45.3345 18.8228 45.1544 18.8139 44.9028 18.7962C44.8451 18.7921 44.7875 18.7879 44.7298 18.7834C44.6177 18.7755 44.5073 18.7525 44.4014 18.7151C44.1242 18.613 43.9562 18.406 43.8974 18.0943ZM43.8776 0.886012V17.2083C44.2211 17.2345 44.4656 17.2477 44.6109 17.2477C44.757 17.2482 44.903 17.241 45.0483 17.226C45.3559 17.1931 45.6058 17.1224 45.7982 17.014C45.8054 17.0099 45.8127 17.0058 45.8198 17.0016C45.9451 16.9283 46.0539 16.8303 46.1394 16.7135C46.225 16.5968 46.2855 16.4638 46.3172 16.3229C46.3239 16.2966 46.3299 16.2701 46.3351 16.2435C46.3879 16.0335 46.4144 15.6725 46.4144 15.1606V14.2155V9.45078H48.4953C48.7331 9.07012 48.852 8.63696 48.852 8.1513C48.8522 8.07086 48.849 7.99046 48.8423 7.9103C48.828 7.74609 48.7982 7.60985 48.7529 7.50155C48.7141 7.4059 48.6622 7.31604 48.5985 7.23457C48.5268 7.14332 48.4379 7.06682 48.3367 7.00933C48.1517 6.90432 47.8875 6.85181 47.544 6.85181C47.2533 6.85181 46.8768 6.89119 46.4144 6.96995V1.53575C46.4144 1.19027 46.2715 0.982554 45.9857 0.912592C45.9053 0.893985 45.823 0.885061 45.7405 0.886012H43.8776ZM42.0544 4.31192V3.36684C42.0546 3.31854 42.0511 3.27028 42.0439 3.22252C42.0244 3.10097 41.9784 3.01126 41.9057 2.95337C41.8651 2.92201 41.8194 2.89771 41.7706 2.8815C41.6879 2.85263 41.5859 2.83727 41.4648 2.83543C41.4565 2.8353 41.4482 2.83524 41.44 2.83523H34.8009V4.37099C34.7996 4.45656 34.8109 4.54186 34.8344 4.62419C34.8908 4.80966 35.0183 4.92668 35.2169 4.97524C35.2949 4.9933 35.3748 5.00196 35.4549 5.00104H39.5573C39.5027 5.63798 39.3446 6.26193 39.0892 6.84866C38.8845 7.33157 38.6148 7.81999 38.28 8.31393C38.1931 8.44204 38.1036 8.56834 38.0114 8.69275C37.3111 9.6288 36.4701 10.4522 35.5177 11.1342C35.1213 11.4211 34.71 11.6873 34.2856 11.9316C34.3517 12.1941 34.464 12.4337 34.6225 12.6503C34.6925 12.7468 34.7715 12.8364 34.8586 12.918C34.9484 13.0022 35.0489 13.0744 35.1576 13.1326C35.369 13.2376 35.587 13.2902 35.8116 13.2902C35.9842 13.2884 36.1557 13.2622 36.3208 13.2122C36.5816 13.1362 36.8611 13.0047 37.1593 12.8176C38.5862 11.8988 39.7588 10.6846 40.677 9.17513C41.5952 7.66563 42.0544 6.04456 42.0544 4.31192Z" fill="#C97212"/>
<path id="4" fill-rule="evenodd" clip-rule="evenodd" d="M66.3514 18.0943H66.292C65.8163 18.0503 65.5398 17.8224 65.4624 17.4105C65.4468 17.3243 65.4392 17.2368 65.4398 17.1492V14.4321C64.4092 14.629 63.3787 14.7275 62.3482 14.7275C62.1502 14.7277 61.9522 14.724 61.7544 14.7164C61.559 14.7087 61.3746 14.697 61.2013 14.6814C61.1011 14.6723 61.0012 14.6615 60.9014 14.6487C60.4614 14.5946 60.0262 14.5073 59.5996 14.3876C59.1571 14.2608 58.7636 14.101 58.419 13.9082C58.0909 13.728 57.792 13.4997 57.5323 13.2311C57.1106 13.0023 56.7387 12.6926 56.4383 12.3201C56.1378 11.9475 55.9148 11.5194 55.782 11.0606C55.6957 10.7854 55.6316 10.5039 55.5902 10.2187C55.4933 9.6734 55.4359 9.04111 55.4179 8.3218C55.4138 8.15343 55.4118 7.98501 55.4118 7.81658C55.4118 6.14957 55.577 4.45631 55.9073 2.73679C55.9997 2.21175 56.3234 1.94922 56.8783 1.94922H63.0616C63.1975 1.94843 63.3331 1.96196 63.4661 1.98959C63.6127 2.02003 63.7537 2.07284 63.8841 2.14612C64.1153 2.27738 64.2903 2.46114 64.4092 2.69741C64.5595 2.73337 64.7031 2.79229 64.8351 2.87205C64.9601 2.94862 65.0708 3.04607 65.1623 3.1601C65.2859 3.31554 65.3698 3.49832 65.4069 3.69289C65.4294 3.80597 65.4404 3.92101 65.4398 4.03627V0.886012C65.4392 0.800075 65.447 0.714284 65.4632 0.629856C65.4827 0.531017 65.5147 0.443466 65.5591 0.367204C65.5889 0.315755 65.6255 0.268424 65.6677 0.226426C65.8017 0.0933281 65.9897 0.0189032 66.2317 0.0031519C66.265 0.00102418 66.2983 -2.64655e-05 66.3316 1.64377e-06H68.1945C68.3401 -0.000835857 68.4853 0.0146859 68.6273 0.0462711C68.767 0.0774963 68.9015 0.128207 69.0269 0.196893C69.2647 0.328154 69.4497 0.511919 69.5818 0.748188C69.9121 0.840071 70.173 1.01727 70.3646 1.27979C70.5145 1.48723 70.6083 1.72937 70.6371 1.98309C70.6471 2.0633 70.6521 2.14405 70.652 2.22487V15.4166V16.0959C70.6524 16.2974 70.6419 16.4987 70.6205 16.6991C70.605 16.8436 70.5824 16.9872 70.5529 17.1295C70.4917 17.4635 70.3431 17.7756 70.1218 18.0342C69.9005 18.2929 69.6145 18.489 69.2926 18.6029C69.0295 18.7037 68.7274 18.7698 68.3864 18.8013C68.2237 18.816 68.0605 18.8231 67.8972 18.8228C67.7885 18.8228 67.6084 18.8139 67.3568 18.7962C67.2991 18.7921 67.2415 18.7879 67.1838 18.7834C67.0717 18.7755 66.9612 18.7525 66.8554 18.7151C66.5782 18.613 66.4102 18.406 66.3514 18.0943ZM66.3316 9.09637V17.2083C66.6751 17.2345 66.9195 17.2477 67.0649 17.2477C67.211 17.2482 67.357 17.241 67.5023 17.226C67.8098 17.1931 68.0598 17.1224 68.2522 17.014C68.2594 17.0099 68.2666 17.0058 68.2738 17.0016C68.3991 16.9283 68.5079 16.8303 68.5934 16.7135C68.679 16.5968 68.7395 16.4638 68.7712 16.3229C68.7779 16.2966 68.7839 16.2701 68.7891 16.2435C68.8419 16.0335 68.8683 15.6725 68.8683 15.1606V14.2155V1.53575C68.8683 1.19027 68.7254 0.982554 68.4397 0.912592C68.3593 0.893985 68.277 0.885061 68.1945 0.886012H66.3316V6.73368H62.5463C62.4362 6.95561 62.3641 7.19423 62.3329 7.43973C62.3164 7.56467 62.3082 7.69057 62.3085 7.81658C62.308 7.92261 62.3157 8.02852 62.3315 8.13338C62.3589 8.30796 62.4107 8.45831 62.4869 8.58446C62.5995 8.77098 62.7832 8.91333 63.038 9.01151C63.0524 9.01702 63.0669 9.02234 63.0814 9.02746C63.3543 9.12433 63.8253 9.17356 64.4945 9.17513C64.5057 9.17514 64.5169 9.17514 64.5282 9.17513C64.6839 9.17493 64.8396 9.17217 64.9953 9.16686C65.2751 9.15767 65.5884 9.14074 65.9352 9.11606L66.3316 9.09637ZM64.6867 12.8176V11.3803C64.6873 11.3141 64.6791 11.2481 64.6621 11.184C64.6307 11.0624 64.5547 10.9568 64.4489 10.8881C64.3815 10.8443 64.3066 10.8132 64.2279 10.7963C64.1046 10.7684 63.9603 10.7661 63.7949 10.7896C63.4012 10.8372 63.0059 10.8709 62.6098 10.8908C62.384 10.902 62.158 10.9076 61.932 10.9078C61.7574 10.908 61.5828 10.9042 61.4084 10.8962C61.0976 10.8813 60.8296 10.8524 60.6042 10.8093C60.442 10.7833 60.282 10.7452 60.1256 10.6953C59.805 10.5912 59.5517 10.4422 59.3655 10.2482C59.2308 10.105 59.1232 9.93877 59.048 9.75753C58.9858 9.61249 58.9368 9.45098 58.901 9.27299C58.8841 9.18841 58.8705 9.10322 58.8602 9.01762C58.8444 8.84745 58.8323 8.67697 58.8239 8.50629C58.8084 8.20072 58.8007 7.85924 58.8007 7.48187C58.8007 6.61331 58.8316 5.91999 58.8933 5.40191C58.9059 5.29416 58.9213 5.18676 58.9394 5.07979H63.6562V3.34715C63.6575 3.27358 63.6458 3.20034 63.6217 3.13077C63.554 2.94648 63.3862 2.84836 63.1183 2.83642C63.0994 2.8356 63.0805 2.83521 63.0616 2.83523H56.7991C56.4688 4.48912 56.3036 6.15613 56.3036 7.83627C56.3029 8.21018 56.3145 8.58401 56.3383 8.95717C56.3614 9.30764 56.3959 9.63822 56.4418 9.94891C56.4483 9.99293 56.4551 10.0369 56.4622 10.0808C56.6075 11.0128 56.9642 11.7117 57.5323 12.1777C57.7717 12.3696 58.0375 12.5265 58.3217 12.6434C58.808 12.8497 59.4037 12.9931 60.1087 13.0736C60.5183 13.1261 60.9807 13.1523 61.496 13.1523C62.5265 13.1523 63.5901 13.0408 64.6867 12.8176ZM62.804 10.0021L62.6652 9.82487C62.2899 9.68792 61.9698 9.43296 61.7536 9.09874C61.7401 9.07847 61.7269 9.05799 61.714 9.03731C61.6178 8.88138 61.5462 8.71172 61.5017 8.53425C61.445 8.31662 61.4167 8.07083 61.4167 7.79689C61.4177 7.53533 61.4491 7.27477 61.5102 7.02035C61.5395 6.89702 61.5744 6.77508 61.6149 6.65492H60.624C60.5989 7.2536 60.5857 7.75154 60.5843 8.14874C60.5843 8.16928 60.5843 8.18982 60.5843 8.21036C60.5842 8.40512 60.5869 8.59987 60.5927 8.79454C60.6019 9.0992 60.619 9.37045 60.6438 9.60829C60.6438 9.67943 60.6546 9.77204 60.6761 9.8861C60.6785 9.89852 60.6809 9.91093 60.6834 9.92332C60.99 9.99105 61.3404 10.0296 61.7348 10.0391C61.8005 10.0407 61.8662 10.0415 61.932 10.0415C62.062 10.0415 62.281 10.0327 62.5891 10.0151C62.6608 10.0109 62.7324 10.0066 62.804 10.0021Z" fill="#C97212"/>
<path id="6" fill-rule="evenodd" clip-rule="evenodd" d="M87.1605 18.0943H87.101C86.6254 18.0503 86.3489 17.8224 86.2714 17.4105C86.2558 17.3243 86.2483 17.2368 86.2488 17.1492V11.971C85.9725 12.4793 85.5979 12.9283 85.1466 13.2925C84.9519 13.4476 84.7438 13.5851 84.5247 13.7036C84.0575 13.9531 83.5517 14.1235 83.0282 14.2079C82.6713 14.2669 82.3101 14.2958 81.9483 14.2943C81.4567 14.2982 80.9663 14.2452 80.4871 14.1362C79.6769 13.9591 78.9374 13.5483 78.3612 12.9554C77.6385 12.5397 77.0555 11.9211 76.6854 11.1773C76.6513 11.1111 76.6187 11.0442 76.5875 10.9767C76.238 10.2197 76.04 9.31715 75.9935 8.26904C75.9864 8.10519 75.9829 7.9412 75.983 7.7772C75.983 6.56147 76.1736 5.50147 76.5548 4.59721C76.5687 4.56434 76.5829 4.53159 76.5974 4.49897C76.7945 4.0447 77.0547 3.62014 77.3705 3.23768C77.6523 2.89961 77.9828 2.60477 78.3513 2.3627C78.9246 1.99072 79.5754 1.75294 80.2546 1.66728C80.5204 1.63152 80.7883 1.61389 81.0565 1.61451C81.606 1.6093 82.153 1.68853 82.6782 1.8494C83.3536 2.06135 83.967 2.4335 84.4652 2.93368C85.2183 3.37997 85.8128 4.02314 86.2488 4.86321V0.886012C86.2482 0.800075 86.2561 0.714284 86.2722 0.629856C86.2918 0.531017 86.3238 0.443466 86.3682 0.367204C86.398 0.315755 86.4345 0.268424 86.4768 0.226426C86.6107 0.0933281 86.7987 0.0189032 87.0408 0.0031519C87.074 0.00102418 87.1073 -2.64655e-05 87.1407 1.64377e-06H89.0036C89.1491 -0.000835857 89.2943 0.0146859 89.4364 0.0462711C89.5761 0.0774963 89.7106 0.128207 89.8359 0.196893C90.0737 0.328154 90.2587 0.511919 90.3908 0.748188C90.7211 0.840071 90.9821 1.01727 91.1737 1.27979C91.3235 1.48723 91.4173 1.72937 91.4462 1.98309C91.4562 2.0633 91.4611 2.14405 91.461 2.22487V15.4166V16.0959C91.4614 16.2974 91.4509 16.4987 91.4295 16.6991C91.414 16.8436 91.3915 16.9872 91.3619 17.1295C91.3008 17.4635 91.1521 17.7756 90.9308 18.0342C90.7096 18.2929 90.4236 18.489 90.1017 18.6029C89.8385 18.7037 89.5364 18.7698 89.1954 18.8013C89.0328 18.816 88.8696 18.8231 88.7063 18.8228C88.5976 18.8228 88.4174 18.8139 88.1659 18.7962C88.1082 18.7921 88.0505 18.7879 87.9928 18.7834C87.8808 18.7755 87.7703 18.7525 87.6645 18.7151C87.3873 18.613 87.2193 18.406 87.1605 18.0943ZM87.1407 0.886012V17.2083C87.4842 17.2345 87.7286 17.2477 87.8739 17.2477C88.02 17.2482 88.166 17.241 88.3113 17.226C88.6189 17.1931 88.8689 17.1224 89.0612 17.014C89.0685 17.0099 89.0757 17.0058 89.0828 17.0016C89.2081 16.9283 89.3169 16.8303 89.4025 16.7135C89.488 16.5968 89.5486 16.4638 89.5803 16.3229C89.587 16.2966 89.5929 16.2701 89.5981 16.2435C89.651 16.0335 89.6774 15.6725 89.6774 15.1606V14.2155V1.53575C89.6774 1.19027 89.5345 0.982554 89.2487 0.912592C89.1684 0.893985 89.0861 0.885061 89.0036 0.886012H87.1407ZM81.0565 12.7192C81.4948 12.7231 81.9318 12.6705 82.3566 12.5628C83.0386 12.392 83.6549 12.0252 84.1283 11.5083C84.4554 11.1425 84.7065 10.7162 84.8671 10.2537C85.0043 9.87672 85.1034 9.45485 85.1644 8.98808C85.2152 8.58645 85.2398 8.18198 85.2381 7.7772C85.2381 6.62959 85.0651 5.66141 84.7191 4.87266C84.5633 4.51163 84.3578 4.17383 84.1085 3.86891C83.7822 3.46633 83.3736 3.13726 82.9096 2.90351C82.4456 2.66977 81.9369 2.5367 81.4172 2.51312C81.2971 2.50466 81.1768 2.50046 81.0565 2.50052C80.5843 2.49544 80.1143 2.56597 79.6647 2.70942C79.0063 2.9264 78.426 3.32933 77.9946 3.86891C77.6419 4.30924 77.3756 4.8115 77.2096 5.34953C77.0701 5.7823 76.9741 6.26068 76.9218 6.78467C76.8897 7.11455 76.874 7.44579 76.8749 7.7772C76.8723 8.23365 76.9038 8.68965 76.9692 9.14146C77.1211 10.1486 77.4563 10.9376 77.9748 11.5083C78.5042 12.0868 79.2102 12.4767 79.9843 12.618C80.3374 12.6874 80.6966 12.7213 81.0565 12.7192ZM80.5014 10.3439C80.6795 10.4067 80.8675 10.4376 81.0565 10.4352C81.1006 10.4352 81.1447 10.4337 81.1887 10.4307C81.6658 10.3978 82.0346 10.1827 82.2951 9.78549C82.3538 9.69468 82.404 9.59872 82.4451 9.49882C82.6292 9.05949 82.7212 8.43311 82.7212 7.61969C82.7212 6.62211 82.5759 5.88048 82.2852 5.39482C81.9968 4.91296 81.5913 4.67013 81.0688 4.66632C81.0647 4.66631 81.0606 4.66631 81.0565 4.66632C80.731 4.65832 80.4141 4.77081 80.1674 4.98194C80.0326 5.10052 79.9179 5.23994 79.8278 5.39482C79.7959 5.4482 79.7664 5.50299 79.7396 5.55903C79.5077 6.04167 79.3918 6.72856 79.3918 7.61969C79.3916 7.76794 79.3949 7.91617 79.4017 8.06427C79.4249 8.55768 79.4889 8.96846 79.5937 9.29661C79.646 9.46884 79.7214 9.63329 79.8179 9.78549C79.8247 9.796 79.8317 9.80644 79.8389 9.8168C80.0133 10.0707 80.2341 10.2463 80.5014 10.3439ZM81.6104 9.17297C81.6423 9.1069 81.6692 9.03851 81.6907 8.96839C81.7192 8.8747 81.7415 8.77927 81.7577 8.68271C81.7942 8.47243 81.8168 8.21542 81.8254 7.91168C81.8281 7.81437 81.8294 7.71703 81.8294 7.61969C81.8296 7.46861 81.8259 7.31754 81.8183 7.16664C81.7997 6.80988 81.7571 6.52773 81.6907 6.32021C81.6317 6.36068 81.5803 6.41113 81.5389 6.46925C81.4638 6.57085 81.3988 6.70756 81.3438 6.87938C81.3333 6.91265 81.3234 6.94613 81.3141 6.97979C81.28 7.10594 81.2536 7.23402 81.235 7.36334C81.1953 7.6319 81.1754 7.94705 81.1754 8.30881C81.1751 8.47594 81.1797 8.64304 81.1893 8.8099C81.1989 8.97345 81.2136 9.12591 81.2335 9.26728C81.2447 9.34852 81.2584 9.42941 81.2745 9.50985C81.412 9.46102 81.524 9.34872 81.6104 9.17297Z" fill="#C97212"/>
<path id="7" fill-rule="evenodd" clip-rule="evenodd" d="M95.2067 2.44145V1.53575C95.2061 1.44982 95.2139 1.36403 95.2301 1.2796C95.2496 1.18076 95.2816 1.09321 95.326 1.01694C95.3558 0.965496 95.3923 0.918165 95.4346 0.876167C95.5686 0.743069 95.7566 0.668644 95.9986 0.652893C96.0319 0.650765 96.0652 0.649714 96.0985 0.649743H97.8821C98.0468 0.648651 98.2106 0.672079 98.3683 0.719245C98.4716 0.750668 98.5711 0.793392 98.665 0.846634C98.8962 0.977895 99.0712 1.16166 99.1901 1.39793C99.3641 1.43757 99.5289 1.50981 99.6757 1.61077C99.7897 1.69075 99.8901 1.78841 99.973 1.9C100.115 2.09255 100.207 2.31747 100.24 2.55427C100.254 2.64729 100.261 2.74121 100.26 2.83523V3.40622C100.26 3.81313 100.207 4.33161 100.102 4.96166L101.885 6.91088V0.886012C101.885 0.800075 101.893 0.714285 101.909 0.629857C101.928 0.531017 101.96 0.443466 102.005 0.367204C102.035 0.315755 102.071 0.268424 102.113 0.226427C102.247 0.0933281 102.435 0.0189032 102.677 0.0031519C102.711 0.00102418 102.744 -2.64655e-05 102.777 1.64378e-06H104.601C104.746 -0.000835857 104.891 0.0146859 105.033 0.0462711C105.173 0.0774963 105.307 0.128207 105.433 0.196893C105.671 0.328154 105.856 0.511919 105.988 0.748188C106.318 0.840071 106.579 1.01727 106.771 1.27979C106.92 1.48723 107.014 1.72937 107.043 1.98309C107.053 2.0633 107.058 2.14405 107.058 2.22487V3.8C107.283 3.83674 107.501 3.91329 107.699 4.02603C107.928 4.15998 108.123 4.34557 108.267 4.56788C108.663 4.71226 108.967 4.9551 109.178 5.29638C109.288 5.45984 109.37 5.6402 109.42 5.83015C109.484 6.06038 109.515 6.32218 109.515 6.61555C109.518 6.964 109.466 7.31076 109.362 7.64352C109.292 7.86223 109.198 8.07225 109.079 8.26943C109.038 8.3475 108.988 8.42029 108.929 8.48621C108.855 8.56915 108.764 8.6361 108.663 8.6829C108.514 8.75116 108.335 8.78988 108.127 8.79907C108.094 8.80043 108.062 8.80109 108.029 8.80104H107.95C107.848 8.80173 107.747 8.79502 107.647 8.78096C107.4 8.74446 107.231 8.65829 107.139 8.52244C107.083 8.43531 107.055 8.3334 107.058 8.23005V8.74197V9.42125C107.058 9.62275 107.048 9.82414 107.026 10.0245C107.011 10.169 106.988 10.3126 106.959 10.4549C106.903 10.7049 106.804 10.9437 106.669 11.1614C106.47 11.4716 106.185 11.7185 105.849 11.8725C106.364 12.2532 106.761 12.706 107.038 13.2311C107.283 13.6992 107.423 14.2145 107.448 14.7414C107.452 14.822 107.454 14.9027 107.454 14.9834C107.461 15.4799 107.365 15.9725 107.172 16.4304C106.943 16.9573 106.574 17.4101 106.065 17.7889C105.992 17.8438 105.916 17.8964 105.839 17.9466C104.762 18.6489 103.266 19 101.35 19C100.287 19 99.3486 18.8899 98.534 18.6698C98.4383 18.644 98.3433 18.6162 98.2488 18.5865C97.4435 18.334 96.7964 17.9766 96.3074 17.5145C96.2631 17.4726 96.2199 17.4296 96.1778 17.3855C95.774 17.1526 95.4134 16.8527 95.1118 16.4987C94.6306 15.9205 94.3787 15.2259 94.3561 14.4148C94.355 14.3746 94.3545 14.3345 94.3545 14.2943C94.3462 13.7205 94.4681 13.1523 94.7112 12.6318C94.9525 12.1284 95.3159 11.6841 95.8014 11.299C95.8341 11.2732 95.867 11.2478 95.9003 11.2228C95.7286 11.2622 95.5502 11.2819 95.3652 11.2819C95.2159 11.2815 95.0669 11.2695 94.9195 11.2458C94.8764 11.239 94.8333 11.2313 94.7905 11.2228C94.3018 11.1131 93.8608 10.8523 93.5309 10.4778C93.5008 10.4446 93.4714 10.4107 93.4429 10.3762C93.0245 10.1899 92.6668 9.89113 92.4103 9.51359C92.3692 9.45465 92.3302 9.3943 92.2934 9.33265C92.2155 9.17776 92.163 9.03698 92.1361 8.91031C92.1225 8.84853 92.1155 8.78551 92.1151 8.72228C92.1151 8.59102 92.1349 8.45976 92.1745 8.3285C92.206 8.23387 92.2442 8.14161 92.2891 8.05246C92.3145 8.00205 92.3424 7.9529 92.3727 7.90518C92.4027 7.85836 92.4346 7.81277 92.4684 7.76854C92.5034 7.72234 92.5427 7.67377 92.5861 7.62284C92.6327 7.56828 92.6805 7.51471 92.7294 7.46218C93.1326 7.05122 93.5034 6.61021 93.8388 6.14301C94.1117 5.7623 94.3537 5.3607 94.5626 4.94197C94.7519 4.56483 94.9049 4.17073 95.0194 3.76496C95.1414 3.33416 95.2044 2.88898 95.2067 2.44145ZM97.1885 7.04871L99.9036 9.70674C100.082 9.66364 100.257 9.60453 100.425 9.53013C100.61 9.44664 100.767 9.34761 100.897 9.23302C101.04 9.10829 101.154 8.95419 101.231 8.78135C101.255 8.72126 101.275 8.65993 101.292 8.59765C101.308 8.53675 101.319 8.47886 101.325 8.42399C101.329 8.39229 101.33 8.36041 101.33 8.3285C101.33 7.9741 101.172 7.65907 100.855 7.38342L98.2389 4.5285C98.2955 4.28222 98.3438 4.03413 98.3837 3.78464C98.4224 3.53984 98.4491 3.30902 98.4636 3.09218C98.4721 2.96733 98.4765 2.84224 98.4767 2.7171V2.14612C98.4777 2.06593 98.4681 1.98596 98.4481 1.90827C98.3911 1.69878 98.2478 1.57763 98.0185 1.54481C97.9733 1.53857 97.9277 1.53555 97.8821 1.53575H96.0985V2.44145C96.0985 3.45216 95.8177 4.48584 95.2562 5.54249C94.8613 6.27769 94.3808 6.96424 93.8246 7.58799C93.5348 7.91535 93.2288 8.22821 92.9078 8.52539C92.9836 8.78601 93.122 9.02444 93.3111 9.22022C93.3251 9.23494 93.3393 9.24944 93.3537 9.26373C93.466 9.37718 93.5957 9.47227 93.738 9.54548C93.8512 9.60284 93.972 9.64388 94.0969 9.66736C94.225 9.68862 94.3273 9.70129 94.4037 9.70536C94.4203 9.70626 94.4369 9.70672 94.4536 9.70674C94.6202 9.70469 94.785 9.67281 94.9401 9.61262C95.1867 9.52074 95.4473 9.36178 95.722 9.13575C96.0089 8.81207 96.2756 8.47127 96.5206 8.11527C96.7591 7.76976 96.9819 7.41389 97.1885 7.04871ZM102.777 0.886012V10.5337C102.854 10.5396 102.931 10.5452 103.008 10.5504C103.23 10.5655 103.391 10.5731 103.491 10.5731C103.636 10.5736 103.782 10.5664 103.927 10.5514C104.223 10.5195 104.463 10.4526 104.648 10.3508C104.662 10.3431 104.676 10.3352 104.69 10.3269C104.925 10.1851 105.096 9.95762 105.165 9.69276C105.177 9.65193 105.187 9.61061 105.195 9.56891C105.248 9.3589 105.274 8.99793 105.274 8.48601V7.54093V7.22591H107.375C107.613 6.84525 107.732 6.41209 107.732 5.92643C107.732 5.84599 107.729 5.76559 107.722 5.68543C107.708 5.52122 107.678 5.38498 107.633 5.27669C107.553 5.06667 107.418 4.90587 107.226 4.7943C107.15 4.75068 107.067 4.717 106.982 4.69409C106.825 4.64998 106.636 4.6276 106.414 4.62695C106.411 4.62694 106.407 4.62694 106.404 4.62695C106.113 4.62695 105.737 4.66632 105.274 4.74508V1.53575C105.274 1.19027 105.131 0.982554 104.846 0.912592C104.765 0.893986 104.683 0.885061 104.601 0.886012H102.777ZM100.458 17.4249C100.912 17.4265 101.366 17.4042 101.817 17.3579C102.887 17.2439 103.736 16.984 104.363 16.5782C104.653 16.3953 104.911 16.1668 105.127 15.9017C105.491 15.4448 105.683 14.8765 105.671 14.2943C105.671 13.6511 105.479 13.067 105.096 12.542C104.882 12.2535 104.62 12.0032 104.322 11.8017C104.093 11.6439 103.834 11.5021 103.546 11.3764C103.479 11.3469 103.411 11.3186 103.342 11.2917C102.667 11.0268 101.862 10.8757 100.929 10.8383C100.772 10.8321 100.615 10.829 100.458 10.829C100.04 10.8276 99.6223 10.8512 99.207 10.8997C98.7883 10.9501 98.4003 11.0276 98.0431 11.1322C97.8847 11.1784 97.7285 11.2316 97.575 11.2917C97.2973 11.3989 97.0298 11.5304 96.7755 11.6845C96.4778 11.8671 96.2244 12.0735 96.0153 12.3037C95.9463 12.3797 95.8815 12.4592 95.8211 12.542C95.4379 13.067 95.2463 13.6511 95.2463 14.2943C95.2386 14.6691 95.3151 15.0409 95.4703 15.3826C95.6254 15.7244 95.8554 16.0274 96.1433 16.2697C96.2726 16.3823 96.41 16.4854 96.5543 16.5782C96.898 16.7949 97.2704 16.9628 97.6608 17.0774C98.3683 17.2941 99.2301 17.4094 100.246 17.4235C100.317 17.4244 100.388 17.4249 100.458 17.4249ZM98.4271 15.0031C98.5125 15.0429 98.6006 15.0767 98.6907 15.1041C99.1082 15.2337 99.6975 15.2984 100.458 15.2984C100.621 15.2986 100.783 15.2953 100.946 15.2886C101.398 15.2693 101.775 15.2217 102.077 15.1459C102.219 15.1118 102.357 15.0639 102.49 15.0031C102.588 14.9576 102.681 14.9014 102.767 14.8354C102.876 14.7548 102.965 14.6494 103.025 14.5279C103.086 14.4064 103.116 14.2723 103.114 14.1368C103.115 13.9924 103.08 13.8501 103.011 13.7227C102.905 13.5233 102.714 13.3496 102.44 13.2016C102.402 13.1806 102.362 13.161 102.322 13.1427C102.014 13.0017 101.622 12.9096 101.144 12.8663C100.916 12.8463 100.687 12.8366 100.458 12.8373C99.8862 12.8373 99.4049 12.8896 99.0147 12.9942C98.8279 13.0422 98.6473 13.1118 98.4767 13.2016C98.4465 13.2179 98.4167 13.2349 98.3873 13.2526C98.2689 13.324 98.1685 13.4009 98.0861 13.4833C97.9967 13.5674 97.9254 13.6687 97.8768 13.7811C97.8281 13.8934 97.8029 14.0145 97.8029 14.1368C97.8005 14.2669 97.8284 14.3958 97.8843 14.5135C97.9402 14.6311 98.0227 14.7344 98.1253 14.8153C98.2176 14.8902 98.319 14.9534 98.4271 15.0031ZM97.248 10.4549L97.1885 10.4943C97.7566 10.2843 98.3512 10.1333 98.9721 10.0415L98.1794 9.25389C98.0622 9.42668 97.9411 9.59683 97.8161 9.76423C97.6929 9.92896 97.5726 10.0807 97.4555 10.2194C97.388 10.2994 97.3188 10.3779 97.248 10.4549Z" fill="#C97212"/>
<path id="9" fill-rule="evenodd" clip-rule="evenodd" d="M125.013 18.0943H124.954C124.478 18.0503 124.202 17.8224 124.124 17.4105C124.109 17.3243 124.101 17.2368 124.102 17.1492V14.4321C123.857 14.5312 123.637 14.5963 123.442 14.6274C123.359 14.6411 123.274 14.6483 123.19 14.6487C122.885 14.6487 122.596 14.5143 122.325 14.2455C122.302 14.2229 122.28 14.1998 122.258 14.1762L122.001 13.9005C121.876 13.8704 121.759 13.8175 121.654 13.7446C121.574 13.6901 121.496 13.6232 121.419 13.5439C121.401 13.5253 121.384 13.5064 121.367 13.487L120.059 12.1482C119.649 12.7257 119.253 13.2442 118.87 13.7036C118.682 13.9347 118.462 14.1375 118.215 14.3057C117.824 14.5709 117.361 14.7112 116.888 14.7078C116.787 14.7075 116.686 14.7013 116.585 14.6891C116.501 14.6789 116.416 14.6654 116.333 14.6487C116.124 14.615 115.921 14.5475 115.734 14.4489C115.688 14.4251 115.643 14.3998 115.6 14.3731C115.362 14.2287 115.15 14.0449 114.965 13.8218C114.529 13.6117 114.173 13.2967 113.895 12.8767C113.763 12.6798 113.697 12.4632 113.697 12.2269C113.697 12.1624 113.71 12.0534 113.735 11.9001C113.736 11.8975 113.736 11.8949 113.737 11.8922C113.76 11.7978 113.791 11.7055 113.83 11.6162C113.852 11.5657 113.877 11.5166 113.905 11.4689C113.978 11.3442 114.093 11.1965 114.252 11.0259C114.697 10.5236 115.112 9.99587 115.495 9.44546C115.889 8.875 116.213 8.31688 116.466 7.7711C116.644 7.39135 116.791 6.99842 116.908 6.59586H116.65C116.504 6.59677 116.359 6.58132 116.217 6.54978C116.077 6.51848 115.943 6.4677 115.818 6.39896C115.58 6.2677 115.395 6.08394 115.263 5.84767C114.932 5.75579 114.671 5.57859 114.48 5.31606C114.33 5.10864 114.236 4.8665 114.207 4.61277C114.197 4.53256 114.192 4.4518 114.192 4.37099V2.85492C114.192 2.76899 114.2 2.6832 114.216 2.59877C114.235 2.49993 114.267 2.41238 114.312 2.33612C114.342 2.28467 114.378 2.23734 114.42 2.19534C114.554 2.06224 114.742 1.98781 114.984 1.97206C115.018 1.96994 115.051 1.96889 115.084 1.96891H122.714C122.85 1.96811 122.986 1.98164 123.119 2.00928C123.265 2.03972 123.406 2.09252 123.537 2.1658C123.768 2.29707 123.943 2.48083 124.062 2.7171H124.102V0.886012C124.101 0.800075 124.109 0.714284 124.125 0.629856C124.144 0.531017 124.176 0.443466 124.221 0.367204C124.251 0.315755 124.287 0.268424 124.329 0.226426C124.463 0.0933281 124.651 0.0189032 124.893 0.0031519C124.927 0.00102418 124.96 -2.64655e-05 124.993 1.64377e-06H126.856C127.002 -0.000835857 127.147 0.0146859 127.289 0.0462711C127.429 0.0774963 127.563 0.128207 127.689 0.196893C127.926 0.328154 128.111 0.511919 128.244 0.748188C128.574 0.840071 128.835 1.01727 129.026 1.27979C129.176 1.48723 129.27 1.72937 129.299 1.98309C129.309 2.0633 129.314 2.14405 129.314 2.22487V15.4166V16.0959C129.314 16.2974 129.304 16.4987 129.282 16.6991C129.267 16.8436 129.244 16.9872 129.215 17.1295C129.153 17.4635 129.005 17.7756 128.784 18.0342C128.562 18.2929 128.276 18.489 127.954 18.6029C127.691 18.7037 127.389 18.7698 127.048 18.8013C126.885 18.816 126.722 18.8231 126.559 18.8228C126.45 18.8228 126.27 18.8139 126.019 18.7962C125.961 18.7921 125.903 18.7879 125.846 18.7834C125.733 18.7755 125.623 18.7525 125.517 18.7151C125.24 18.613 125.072 18.406 125.013 18.0943ZM119.088 9.86425L122.199 13.0736C122.516 13.0473 122.803 12.9686 123.061 12.8373C123.319 12.706 123.514 12.5354 123.646 12.3254C123.751 12.1679 123.804 11.9907 123.804 11.7938C123.804 11.517 123.696 11.2354 123.48 10.9491C123.438 10.8942 123.394 10.841 123.348 10.7896L120.078 7.36373C120.277 6.53679 120.376 5.75579 120.376 5.02073H123.348V3.50466C123.348 3.16273 123.217 2.95573 122.953 2.88367C122.875 2.86354 122.795 2.85387 122.714 2.85492H115.084V4.37099C115.084 4.71646 115.227 4.92418 115.513 4.99415C115.593 5.01277 115.676 5.02169 115.758 5.02073H118.017C118.017 7.22591 116.841 9.57548 114.49 12.0694C114.556 12.3057 114.698 12.5256 114.916 12.729C115.13 12.9287 115.353 13.0494 115.586 13.0911C115.591 13.0918 115.595 13.0926 115.6 13.0933C115.784 13.1195 115.916 13.1326 115.995 13.1326C115.995 13.1326 115.996 13.1326 115.996 13.1326C116.303 13.1308 116.602 13.0344 116.851 12.8568C116.988 12.7633 117.12 12.6462 117.249 12.5053C117.268 12.485 117.286 12.4644 117.304 12.4435C117.696 11.9779 118.064 11.492 118.405 10.9879C118.65 10.6244 118.878 10.2494 119.088 9.86425ZM124.993 0.886012V17.2083C125.337 17.2345 125.581 17.2477 125.727 17.2477C125.873 17.2482 126.019 17.241 126.164 17.226C126.472 17.1931 126.722 17.1224 126.914 17.014C126.921 17.0099 126.928 17.0058 126.936 17.0016C127.061 16.9283 127.17 16.8303 127.255 16.7135C127.341 16.5968 127.401 16.4638 127.433 16.3229C127.44 16.2966 127.446 16.2701 127.451 16.2435C127.504 16.0335 127.53 15.6725 127.53 15.1606V14.2155V1.53575C127.53 1.19027 127.387 0.982554 127.101 0.912592C127.021 0.893985 126.939 0.885061 126.856 0.886012H124.993ZM121.941 7.7772L124.102 10.0415V6.59586H122.12C122.08 6.98964 122.021 7.38342 121.941 7.7772Z" fill="#C97212"/>
<path id="10" fill-rule="evenodd" clip-rule="evenodd" d="M134.288 5.39482H133.594C133.449 5.39574 133.304 5.38028 133.161 5.34875C133.022 5.31744 132.887 5.26667 132.762 5.19793C132.524 5.06667 132.346 4.8829 132.227 4.64663C132.08 4.60857 131.939 4.54948 131.809 4.4712C131.662 4.38181 131.535 4.26405 131.434 4.12487C131.302 3.93985 131.215 3.72662 131.181 3.5023C131.165 3.39891 131.156 3.29434 131.157 3.18964V1.65389C131.156 1.56795 131.164 1.48216 131.18 1.39773C131.2 1.29889 131.232 1.21134 131.276 1.13508C131.306 1.08363 131.342 1.0363 131.385 0.994302C131.519 0.861204 131.707 0.786779 131.949 0.771028C131.982 0.7689 132.015 0.767849 132.049 0.767877H138.41C138.714 0.767877 138.982 0.833508 139.213 0.964769C139.444 1.09603 139.619 1.27979 139.738 1.51606C139.896 1.54669 140.047 1.60468 140.184 1.68736C140.352 1.79144 140.492 1.93557 140.59 2.10674V0.886012C140.59 0.800075 140.597 0.714285 140.614 0.629857C140.633 0.531017 140.665 0.443466 140.71 0.367204C140.739 0.315755 140.776 0.268424 140.818 0.226427C140.952 0.0933281 141.14 0.0189032 141.382 0.0031519C141.415 0.00102418 141.449 -2.64655e-05 141.482 1.64378e-06H143.305C143.451 -0.000835857 143.596 0.0146859 143.738 0.0462711C143.878 0.0774963 144.012 0.128207 144.138 0.196893C144.376 0.328154 144.56 0.511919 144.693 0.748188C145.023 0.840071 145.284 1.01727 145.475 1.27979C145.625 1.48723 145.719 1.72937 145.748 1.98309C145.758 2.0633 145.763 2.14405 145.763 2.22487V7.65907V8.33834C145.763 8.53985 145.753 8.74124 145.731 8.94162C145.716 9.08609 145.693 9.22973 145.664 9.37202C145.617 9.6143 145.528 9.84647 145.4 10.0578C145.299 10.221 145.174 10.3682 145.03 10.4943C145.177 10.5997 145.301 10.7336 145.395 10.888C145.489 11.0424 145.551 11.2141 145.577 11.3927C145.596 11.5057 145.605 11.6202 145.604 11.7347V16.5192C145.604 16.7342 145.574 16.9219 145.514 17.0825C145.508 17.0983 145.502 17.114 145.495 17.1295C145.423 17.3002 145.3 17.4511 145.129 17.5824C144.649 17.9394 144.042 18.2296 143.307 18.4528C143.146 18.5017 142.983 18.5463 142.82 18.5865C142.091 18.7639 141.347 18.8741 140.597 18.9159C140.311 18.9327 140.025 18.9411 139.738 18.9409C139.289 18.9409 138.846 18.9212 138.41 18.8819C137.945 18.8377 137.485 18.754 137.034 18.6316C136.542 18.4946 136.106 18.3118 135.727 18.0833C135.431 17.9069 135.161 17.6921 134.922 17.4446C134.116 16.972 133.555 16.3157 133.238 15.4756C133.169 15.2917 133.116 15.1025 133.077 14.91C132.973 14.4046 132.921 13.7597 132.921 12.9751C132.921 12.524 132.945 12.0146 132.994 11.4471C133.002 11.3526 133.011 11.2581 133.02 11.1637C132.986 11.1552 132.953 11.1446 132.921 11.1322C132.829 11.0974 132.717 11.0423 132.584 10.9668C132.475 10.8889 132.372 10.8023 132.278 10.7079C132.197 10.6276 132.12 10.5432 132.049 10.4549C132.011 10.4426 131.974 10.4287 131.937 10.4134C131.904 10.3993 131.872 10.3836 131.841 10.3663C131.8 10.3437 131.763 10.3227 131.732 10.3033C131.718 10.295 131.705 10.2865 131.692 10.2777C131.491 10.1398 131.314 9.96967 131.168 9.77427C131.091 9.67131 131.021 9.56323 130.959 9.45078C130.76 9.09638 130.642 8.72228 130.602 8.3285C130.595 8.21207 130.606 8.10549 130.635 8.00875C130.661 7.92116 130.704 7.83925 130.76 7.76736C130.816 7.69747 130.88 7.63418 130.95 7.57874C131.047 7.50182 131.162 7.43015 131.296 7.36373C132.066 6.99337 132.799 6.5519 133.486 6.04515C133.763 5.83998 134.03 5.623 134.288 5.39482ZM138.549 5.13886H141.482V6.59586H138.133C138.057 6.78182 138.006 6.97662 137.98 7.1755C137.963 7.30972 137.954 7.44495 137.954 7.58031C137.954 7.66334 137.958 7.74633 137.966 7.82899C137.983 8.00054 138.019 8.1408 138.073 8.24974C138.132 8.38323 138.231 8.49511 138.357 8.56949C138.411 8.60281 138.469 8.6309 138.529 8.65337C138.601 8.67992 138.676 8.7006 138.752 8.71519C138.914 8.74814 139.116 8.76881 139.358 8.77721C139.445 8.78009 139.532 8.78147 139.619 8.78135C140.068 8.78135 140.689 8.74197 141.482 8.66321V9.45078C141.559 9.45668 141.636 9.46226 141.713 9.46751C141.935 9.48261 142.095 9.49016 142.196 9.49016C142.341 9.49073 142.487 9.4835 142.632 9.4685C142.928 9.4366 143.168 9.36973 143.353 9.26787C143.367 9.26021 143.381 9.25227 143.395 9.24404C143.63 9.10224 143.801 8.87471 143.87 8.60986C143.882 8.56903 143.892 8.52771 143.9 8.48601C143.953 8.276 143.979 7.91503 143.979 7.40311V6.45803V1.53575C143.979 1.19027 143.836 0.982554 143.55 0.912592C143.47 0.893986 143.388 0.885061 143.305 0.886012H141.482V3.01244H139.025V2.26425C139.026 2.18271 139.015 2.1014 138.994 2.02266C138.923 1.77681 138.729 1.65389 138.41 1.65389H132.049V3.18964C132.047 3.27521 132.059 3.36052 132.082 3.44284C132.139 3.62831 132.266 3.74533 132.465 3.7939C132.543 3.81195 132.623 3.82061 132.703 3.81969H136.468C136.406 4.06656 136.309 4.30341 136.18 4.52318C135.905 5.00583 135.463 5.52608 134.853 6.08394C134.252 6.62882 133.596 7.1103 132.895 7.52065C132.441 7.78813 131.973 8.0315 131.494 8.24974C131.517 8.46357 131.575 8.67236 131.664 8.86838C131.682 8.9088 131.701 8.94872 131.722 8.98809C131.769 9.08142 131.825 9.1702 131.889 9.2533C131.978 9.36736 132.077 9.45944 132.187 9.52954C132.301 9.60684 132.43 9.65943 132.566 9.6839C132.65 9.69953 132.736 9.70718 132.822 9.70674C132.982 9.70541 133.141 9.68619 133.297 9.64944C133.445 9.61571 133.601 9.56708 133.764 9.50355C133.881 9.45772 133.997 9.40727 134.11 9.35233C135.061 8.89292 135.94 8.2924 136.746 7.55078C137.168 7.1661 137.549 6.73966 137.884 6.27807C138.142 5.92059 138.365 5.53906 138.549 5.13886ZM143.821 16.086V11.0456C143.822 10.9601 143.811 10.8748 143.787 10.7926C143.73 10.607 143.603 10.4899 143.404 10.4413C143.326 10.4233 143.247 10.4146 143.167 10.4155H141.423V11.8725H136.23L136.25 11.4C136.254 11.3664 136.257 11.3327 136.26 11.299C136.264 11.2324 136.267 11.1532 136.269 11.0612C136.27 11.0166 136.27 10.972 136.27 10.9275C136.27 10.8804 136.267 10.8334 136.259 10.7869C136.251 10.7365 136.238 10.6913 136.221 10.6512C136.204 10.6117 136.18 10.5753 136.151 10.5435C136.117 10.5084 136.076 10.481 136.031 10.4632C135.962 10.4346 135.875 10.4189 135.77 10.4161C135.758 10.4158 135.747 10.4156 135.735 10.4155H134.011C133.918 11.0523 133.857 11.6931 133.828 12.3358C133.818 12.575 133.812 12.8145 133.812 13.0539C133.812 13.8308 133.871 14.4514 133.987 14.9155C133.995 14.9448 134.002 14.974 134.011 15.0031C134.388 16.1984 135.381 16.9386 136.991 17.2236C137.192 17.259 137.394 17.2867 137.598 17.3067C138.02 17.3461 138.443 17.3658 138.866 17.3658C139.487 17.3677 140.108 17.3233 140.723 17.2329C141.075 17.1804 141.424 17.1097 141.769 17.0212C142.053 16.9493 142.333 16.8616 142.607 16.7586C143.102 16.5702 143.507 16.346 143.821 16.086ZM136.31 13.9596L136.29 13.8021H141.423V14.944C141.275 14.9985 141.125 15.0452 140.972 15.084C140.817 15.1242 140.65 15.1597 140.473 15.1906C140.413 15.201 140.353 15.2107 140.293 15.2197C139.857 15.2853 139.421 15.3181 138.985 15.3181C138.827 15.3184 138.669 15.3147 138.511 15.3071C138.264 15.2949 138.045 15.2723 137.855 15.2394C137.713 15.2138 137.571 15.1809 137.432 15.1407C137.143 15.0561 136.913 14.9469 136.744 14.8131C136.741 14.8108 136.738 14.8085 136.736 14.8062C136.555 14.6598 136.425 14.4613 136.364 14.2382C136.337 14.1471 136.319 14.0539 136.31 13.9596ZM140.531 10.9865V10.3565C140.344 10.357 140.157 10.3496 139.971 10.3342C139.799 10.3197 139.64 10.2978 139.494 10.2687C139.358 10.2423 139.224 10.2059 139.094 10.1596C138.731 10.0283 138.45 9.80518 138.252 9.49016C138.18 9.46313 138.11 9.43318 138.041 9.40038C137.973 9.36769 137.911 9.3337 137.854 9.29839C137.841 9.2903 137.828 9.28203 137.816 9.27358C137.512 9.50985 137.188 9.75268 136.845 10.0021L137.023 10.258C137.446 10.363 137.75 10.6059 137.935 10.9865H140.531Z" fill="#C97212"/>
<path id="11" fill-rule="evenodd" clip-rule="evenodd" d="M157.713 18.0943H157.654C157.178 18.0503 156.902 17.8224 156.824 17.4105C156.809 17.3243 156.801 17.2368 156.802 17.1492V14.4321C156.557 14.5312 156.337 14.5963 156.142 14.6274C156.059 14.6411 155.974 14.6483 155.89 14.6487C155.585 14.6487 155.296 14.5143 155.025 14.2455C155.002 14.2229 154.98 14.1998 154.958 14.1762L154.701 13.9005C154.576 13.8704 154.459 13.8175 154.354 13.7446C154.274 13.6901 154.195 13.6232 154.119 13.5439C154.101 13.5253 154.084 13.5064 154.067 13.487L152.759 12.1482C152.349 12.7257 151.953 13.2442 151.57 13.7036C151.382 13.9347 151.162 14.1375 150.915 14.3057C150.524 14.5709 150.061 14.7112 149.588 14.7078C149.487 14.7075 149.386 14.7013 149.285 14.6891C149.201 14.6789 149.116 14.6654 149.033 14.6487C148.824 14.615 148.621 14.5475 148.434 14.4489C148.388 14.4251 148.343 14.3998 148.3 14.3731C148.062 14.2287 147.85 14.0449 147.665 13.8218C147.229 13.6117 146.873 13.2967 146.595 12.8767C146.463 12.6798 146.397 12.4632 146.397 12.2269C146.397 12.1624 146.41 12.0534 146.435 11.9001C146.436 11.8975 146.436 11.8949 146.437 11.8922C146.46 11.7978 146.491 11.7055 146.53 11.6162C146.552 11.5657 146.577 11.5166 146.605 11.4689C146.678 11.3442 146.793 11.1965 146.952 11.0259C147.397 10.5236 147.812 9.99587 148.195 9.44546C148.589 8.875 148.913 8.31688 149.166 7.7711C149.344 7.39135 149.491 6.99842 149.608 6.59586H149.35C149.204 6.59677 149.059 6.58132 148.917 6.54978C148.777 6.51848 148.643 6.4677 148.518 6.39896C148.28 6.2677 148.095 6.08394 147.963 5.84767C147.632 5.75579 147.371 5.57859 147.18 5.31606C147.03 5.10864 146.936 4.8665 146.907 4.61277C146.897 4.53256 146.892 4.4518 146.892 4.37099V2.85492C146.892 2.76899 146.9 2.6832 146.916 2.59877C146.935 2.49993 146.967 2.41238 147.012 2.33612C147.042 2.28467 147.078 2.23734 147.12 2.19534C147.254 2.06224 147.442 1.98781 147.684 1.97206C147.718 1.96994 147.751 1.96889 147.784 1.96891H155.414C155.55 1.96811 155.686 1.98164 155.819 2.00928C155.965 2.03972 156.106 2.09252 156.237 2.1658C156.468 2.29707 156.643 2.48083 156.762 2.7171H156.802V0.886012C156.801 0.800075 156.809 0.714284 156.825 0.629856C156.844 0.531017 156.876 0.443466 156.921 0.367204C156.951 0.315755 156.987 0.268424 157.029 0.226426C157.163 0.0933281 157.351 0.0189032 157.593 0.0031519C157.627 0.00102418 157.66 -2.64655e-05 157.693 1.64377e-06H159.556C159.702 -0.000835857 159.847 0.0146859 159.989 0.0462711C160.129 0.0774963 160.263 0.128207 160.389 0.196893C160.626 0.328154 160.811 0.511919 160.944 0.748188C161.274 0.840071 161.535 1.01727 161.726 1.27979C161.876 1.48723 161.97 1.72937 161.999 1.98309C162.009 2.0633 162.014 2.14405 162.014 2.22487V15.4166V16.0959C162.014 16.2974 162.004 16.4987 161.982 16.6991C161.967 16.8436 161.944 16.9872 161.915 17.1295C161.853 17.4635 161.705 17.7756 161.484 18.0342C161.262 18.2929 160.976 18.489 160.654 18.6029C160.391 18.7037 160.089 18.7698 159.748 18.8013C159.585 18.816 159.422 18.8231 159.259 18.8228C159.15 18.8228 158.97 18.8139 158.719 18.7962C158.661 18.7921 158.603 18.7879 158.546 18.7834C158.433 18.7755 158.323 18.7525 158.217 18.7151C157.94 18.613 157.772 18.406 157.713 18.0943ZM151.788 9.86425L154.899 13.0736C155.216 13.0473 155.503 12.9686 155.761 12.8373C156.019 12.706 156.214 12.5354 156.346 12.3254C156.451 12.1679 156.504 11.9907 156.504 11.7938C156.504 11.517 156.396 11.2354 156.18 10.9491C156.138 10.8942 156.094 10.841 156.048 10.7896L152.778 7.36373C152.977 6.53679 153.076 5.75579 153.076 5.02073H156.048V3.50466C156.048 3.16273 155.917 2.95573 155.653 2.88367C155.575 2.86354 155.495 2.85387 155.414 2.85492H147.784V4.37099C147.784 4.71646 147.927 4.92418 148.213 4.99415C148.293 5.01277 148.376 5.02169 148.458 5.02073H150.717C150.717 7.22591 149.541 9.57548 147.19 12.0694C147.256 12.3057 147.398 12.5256 147.616 12.729C147.83 12.9287 148.053 13.0494 148.286 13.0911C148.291 13.0918 148.295 13.0926 148.3 13.0933C148.484 13.1195 148.616 13.1326 148.695 13.1326C148.695 13.1326 148.696 13.1326 148.696 13.1326C149.003 13.1308 149.302 13.0344 149.551 12.8568C149.688 12.7633 149.82 12.6462 149.949 12.5053C149.968 12.485 149.986 12.4644 150.004 12.4435C150.396 11.9779 150.764 11.492 151.105 10.9879C151.35 10.6244 151.578 10.2494 151.788 9.86425ZM157.693 0.886012V17.2083C158.037 17.2345 158.281 17.2477 158.427 17.2477C158.573 17.2482 158.719 17.241 158.864 17.226C159.172 17.1931 159.422 17.1224 159.614 17.014C159.621 17.0099 159.628 17.0058 159.636 17.0016C159.761 16.9283 159.87 16.8303 159.955 16.7135C160.041 16.5968 160.101 16.4638 160.133 16.3229C160.14 16.2966 160.146 16.2701 160.151 16.2435C160.204 16.0335 160.23 15.6725 160.23 15.1606V14.2155V1.53575C160.23 1.19027 160.087 0.982554 159.801 0.912592C159.721 0.893985 159.639 0.885061 159.556 0.886012H157.693ZM154.641 7.7772L156.802 10.0415V6.59586H154.82C154.78 6.98964 154.721 7.38342 154.641 7.7772Z" fill="#C97212"/>
<path id="13" fill-rule="evenodd" clip-rule="evenodd" d="M176.996 2.83523V0.886012C176.996 0.800075 177.003 0.714285 177.02 0.629857C177.039 0.531017 177.071 0.443466 177.116 0.367204C177.145 0.315755 177.182 0.268424 177.224 0.226426C177.358 0.0933281 177.546 0.0189032 177.788 0.0031519C177.821 0.00102418 177.855 -2.64655e-05 177.888 1.64378e-06H179.711C179.857 -0.000835857 180.002 0.0146859 180.144 0.0462711C180.284 0.0774963 180.418 0.128207 180.544 0.196893C180.781 0.328154 180.966 0.511919 181.099 0.748188C181.429 0.840071 181.69 1.01727 181.881 1.27979C182.031 1.48723 182.125 1.72937 182.154 1.98309C182.164 2.0633 182.169 2.14405 182.169 2.22487V3.36684C182.379 3.4117 182.58 3.48812 182.767 3.59346C183.006 3.7306 183.209 3.923 183.358 4.15441C183.718 4.26917 184.028 4.50421 184.234 4.8197C184.239 4.8276 184.244 4.83555 184.25 4.84352C184.387 5.0524 184.485 5.28475 184.538 5.5289C184.579 5.71031 184.602 5.90621 184.606 6.11662C184.606 6.13854 184.606 6.16046 184.606 6.18238C184.606 6.77306 184.461 7.32435 184.17 7.83627C184.129 7.91433 184.079 7.98713 184.02 8.05305C183.946 8.13599 183.855 8.20294 183.754 8.24974C183.605 8.318 183.426 8.35672 183.218 8.36591C183.185 8.36727 183.153 8.36793 183.12 8.36788H182.169C182.147 8.69682 182.122 8.95717 182.092 9.14894C182.085 9.19064 182.078 9.23219 182.07 9.27358C181.911 9.95613 181.541 10.4287 180.96 10.6912C181.277 10.8093 181.521 11.0193 181.693 11.3212C182.037 11.4263 182.304 11.61 182.496 11.8725C182.631 12.0606 182.72 12.2775 182.756 12.5059C182.775 12.6155 182.784 12.7263 182.783 12.8373V13.9202C182.784 14.0062 182.776 14.0921 182.76 14.1766C182.74 14.2753 182.708 14.3628 182.664 14.439C182.634 14.4905 182.597 14.5378 182.555 14.5798C182.421 14.713 182.233 14.7874 181.991 14.8031C181.958 14.8052 181.925 14.8062 181.891 14.8062C182.142 15.2263 182.268 15.6791 182.268 16.1648C182.273 16.5137 182.204 16.8598 182.067 17.1809C181.894 17.5721 181.611 17.9061 181.217 18.1829C180.829 18.4512 180.393 18.6456 179.933 18.7563C179.497 18.8662 179.013 18.9212 178.483 18.9212C178.092 18.9235 177.701 18.8889 177.317 18.8181C176.848 18.7289 176.425 18.5819 176.048 18.3768C175.986 18.3434 175.926 18.3083 175.867 18.2715C175.828 18.2968 175.753 18.3222 175.641 18.3475C175.637 18.3484 175.633 18.3493 175.629 18.3503C175.376 18.4105 175.119 18.4555 174.861 18.4849C174.507 18.5264 174.123 18.5471 173.706 18.5471C173.31 18.5471 173.026 18.534 172.854 18.5078C172.505 18.4695 172.162 18.3908 171.832 18.2733C171.332 18.0986 170.886 17.7998 170.535 17.4052C170.169 17.2227 169.845 16.9656 169.585 16.6505C169.325 16.3355 169.135 15.9696 169.027 15.5767C169.005 15.5042 168.987 15.4311 168.97 15.3575C168.929 15.1861 168.897 15.0128 168.874 14.8381C168.822 14.4565 168.79 13.9915 168.777 13.4431C168.773 13.2675 168.772 13.0918 168.772 12.9161C168.771 12.4097 168.788 11.9034 168.823 11.3982C168.844 11.0962 168.874 10.7948 168.91 10.4943C168.922 10.3748 168.952 10.2577 168.999 10.1474C169.102 9.9178 169.285 9.76804 169.548 9.69807C169.599 9.68468 169.651 9.67442 169.703 9.66736C169.65 9.63207 169.598 9.59429 169.548 9.55415C169.464 9.48694 169.397 9.41967 169.346 9.35233C168.673 8.97168 168.157 8.44663 167.801 7.7772C167.444 7.10777 167.266 6.32021 167.266 5.41451C167.266 4.44318 167.474 3.5867 167.89 2.84508C168.306 2.10346 168.891 1.52919 169.644 1.12228C170.202 0.82439 170.812 0.633689 171.442 0.560157C171.706 0.527521 171.973 0.51141 172.24 0.511919C172.98 0.511919 173.657 0.630054 174.271 0.866323C174.886 1.10259 175.417 1.44387 175.867 1.89016C176.303 2.13955 176.679 2.45458 176.996 2.83523ZM172.24 9.15544C173.521 9.15544 174.522 8.83385 175.242 8.19067C175.718 7.76045 176.05 7.19525 176.192 6.57164C176.279 6.22012 176.322 5.83441 176.322 5.41451C176.326 4.98653 176.274 4.55988 176.168 4.14515C176.008 3.5192 175.682 2.9476 175.223 2.49067C174.489 1.76218 173.495 1.39793 172.24 1.39793C171.805 1.39427 171.371 1.44595 170.949 1.5517C170.313 1.7093 169.733 2.03361 169.267 2.49067C168.72 3.03379 168.358 3.73485 168.236 4.49385C168.182 4.79783 168.156 5.10593 168.157 5.41451C168.154 5.78358 168.193 6.1518 168.273 6.51218C168.398 7.04877 168.621 7.50766 168.943 7.88884C169.034 7.99614 169.132 8.097 169.237 8.19067C169.649 8.55229 170.14 8.81466 170.671 8.95737C171.136 9.08942 171.659 9.15544 172.24 9.15544ZM177.888 0.886012V9.35233C177.965 9.35823 178.042 9.36381 178.119 9.36907C178.34 9.38416 178.501 9.39171 178.601 9.39171C178.747 9.39228 178.893 9.38505 179.038 9.37005C179.334 9.33816 179.574 9.27128 179.759 9.16942C179.773 9.16177 179.787 9.15383 179.8 9.1456C180.036 9.00379 180.207 8.77627 180.276 8.51141C180.288 8.47058 180.298 8.42926 180.306 8.38757C180.359 8.13817 180.385 7.83299 180.385 7.47202V6.79275H182.466C182.704 6.41209 182.823 5.97893 182.823 5.49327C182.823 5.41283 182.82 5.33243 182.813 5.25227C182.799 5.08806 182.769 4.95182 182.724 4.84352C182.685 4.74787 182.633 4.65801 182.569 4.57654C182.498 4.48529 182.409 4.40879 182.307 4.3513C182.123 4.24629 181.858 4.19378 181.515 4.19378C181.224 4.19378 180.848 4.23316 180.385 4.31192V1.53575C180.385 1.19027 180.242 0.982554 179.956 0.912592C179.876 0.893985 179.794 0.885061 179.711 0.886012H177.888ZM174.559 16.7948V15.515C174.56 15.4287 174.55 15.3425 174.53 15.2585C174.45 14.9433 174.202 14.8123 173.786 14.8653C173.627 14.8915 173.469 14.9047 173.31 14.9047C173.222 14.9049 173.135 14.9012 173.048 14.8934C172.942 14.8837 172.844 14.8678 172.755 14.8456C172.606 14.8158 172.468 14.7483 172.353 14.6497C172.238 14.5511 172.151 14.4246 172.1 14.2827C172.035 14.1223 171.996 13.9293 171.982 13.7036C171.97 13.4739 171.963 13.0884 171.962 12.5471C171.962 12.4994 171.962 12.4518 171.962 12.4041L171.982 11.144C171.982 11.0909 171.979 11.0377 171.973 10.985C171.955 10.8559 171.916 10.758 171.853 10.6912C171.816 10.6526 171.771 10.6225 171.721 10.6032C171.644 10.5721 171.548 10.5555 171.431 10.5536C171.423 10.5534 171.415 10.5534 171.408 10.5534H169.802C169.71 11.2884 169.664 12.1022 169.664 12.9948C169.664 13.8592 169.718 14.5562 169.826 15.0858C169.831 15.1108 169.836 15.1357 169.842 15.1606C169.92 15.5359 170.095 15.8844 170.35 16.1715C170.734 16.591 171.305 16.8447 172.062 16.9326C172.181 16.9525 172.36 16.9648 172.6 16.9697C172.685 16.9713 172.77 16.9721 172.854 16.972C173.502 16.972 174.07 16.913 174.559 16.7948ZM180.999 13.2311V12.1482C180.999 11.7818 180.848 11.5616 180.546 11.4874C180.461 11.4676 180.373 11.4581 180.286 11.4591H178.72C178.779 11.2942 178.812 11.1213 178.818 10.9466C178.819 10.9205 178.819 10.8945 178.82 10.8684C178.822 10.7314 178.8 10.5951 178.753 10.4661C178.615 10.1043 178.26 9.92332 177.69 9.92332C177.425 9.92064 177.162 9.96794 176.915 10.0627C176.713 10.1422 176.526 10.2549 176.362 10.3959C176.507 10.9734 176.593 11.3278 176.62 11.4591H174.202V12.5617C174.202 12.9158 174.343 13.1294 174.626 13.2025C174.708 13.2225 174.792 13.2321 174.876 13.2311H180.999ZM177.591 17.3461C177.866 17.3475 178.141 17.3294 178.413 17.2922C178.932 17.2183 179.365 17.0689 179.711 16.844C179.889 16.732 180.045 16.5907 180.175 16.4262C180.381 16.1586 180.484 15.8425 180.484 15.4778C180.484 15.4771 180.484 15.4764 180.484 15.4756C180.49 15.236 180.442 14.998 180.344 14.7788C180.247 14.5595 180.102 14.3642 179.92 14.2067C179.848 14.1424 179.771 14.0829 179.691 14.0285C179.42 13.8467 179.12 13.7123 178.803 13.631C178.444 13.535 178.04 13.487 177.591 13.487C177.31 13.4856 177.03 13.507 176.752 13.551C176.258 13.6324 175.837 13.7916 175.49 14.0285C175.304 14.1524 175.14 14.3071 175.007 14.4859C174.799 14.7739 174.69 15.1212 174.697 15.4756C174.692 15.7004 174.738 15.9234 174.83 16.1285C174.923 16.3335 175.061 16.5153 175.234 16.6605C175.311 16.7276 175.394 16.7889 175.48 16.844C175.724 16.9974 175.99 17.1131 176.269 17.1872C176.509 17.2535 176.77 17.2991 177.055 17.3239C177.233 17.3391 177.412 17.3465 177.591 17.3461ZM171.549 7.02134C171.772 7.09583 172.005 7.13173 172.24 7.12746C172.389 7.12838 172.538 7.11539 172.684 7.08868C173.297 6.9729 173.679 6.59763 173.83 5.96285C173.882 5.73119 173.907 5.49433 173.905 5.257C173.905 4.60069 173.756 4.10846 173.459 3.78031C173.275 3.57567 173.035 3.42826 172.768 3.35582C172.596 3.30921 172.418 3.28642 172.24 3.28808C172.125 3.28768 172.01 3.29677 171.896 3.31526C171.561 3.3636 171.255 3.5284 171.031 3.78031C170.827 4.01107 170.694 4.32294 170.633 4.71594C170.607 4.89507 170.594 5.07594 170.595 5.257C170.595 6.20693 170.913 6.79504 171.549 7.02134ZM177.304 15.5851C177.4 15.5912 177.495 15.5941 177.591 15.5938C177.658 15.5939 177.726 15.5925 177.794 15.5896C178.266 15.5692 178.502 15.4721 178.502 15.2984C178.502 15.274 178.497 15.2498 178.486 15.228C178.464 15.1842 178.421 15.144 178.357 15.1071C178.327 15.0901 178.296 15.0751 178.265 15.0622C178.154 15.0166 178.012 14.9869 177.838 14.973C177.756 14.9666 177.673 14.9635 177.591 14.9637C177.413 14.9637 177.258 14.9772 177.127 15.0041C177.058 15.0176 176.992 15.037 176.927 15.0622C176.831 15.1002 176.763 15.1428 176.723 15.1898C176.695 15.2195 176.68 15.2581 176.679 15.2984C176.679 15.3243 176.685 15.3498 176.696 15.3732C176.707 15.3966 176.723 15.4173 176.743 15.4339C176.833 15.5156 177.02 15.566 177.304 15.5851ZM172.379 5.94612L172.398 6.24145C172.462 6.2345 172.524 6.22124 172.585 6.20188C172.713 6.16001 172.81 6.09116 172.874 5.99534C172.903 5.94975 172.927 5.90041 172.943 5.84865C172.977 5.74522 172.998 5.61284 173.007 5.45152C173.011 5.38675 173.013 5.32188 173.013 5.257C173.013 5.11852 173.009 5.00983 173.001 4.93094C172.999 4.90828 172.997 4.88569 172.993 4.86321C172.925 4.87054 172.858 4.88669 172.793 4.91126C172.676 4.95543 172.578 5.03957 172.517 5.14871C172.439 5.28745 172.394 5.49878 172.382 5.7827C172.38 5.83714 172.378 5.89163 172.379 5.94612Z" fill="#C97212"/>
<path id="14" fill-rule="evenodd" clip-rule="evenodd" d="M200.659 16.5782H186.667C186.522 16.5792 186.377 16.5637 186.234 16.5322C186.095 16.5009 185.96 16.4501 185.835 16.3813C185.597 16.2501 185.412 16.0663 185.28 15.83C184.95 15.7382 184.689 15.561 184.497 15.2984C184.347 15.091 184.254 14.8489 184.225 14.5951C184.215 14.5149 184.21 14.4342 184.21 14.3534V12.8373C184.209 12.7514 184.217 12.6656 184.233 12.5811C184.253 12.4823 184.285 12.3948 184.329 12.3185C184.359 12.267 184.396 12.2197 184.438 12.1777C184.572 12.0446 184.76 11.9702 185.002 11.9544C185.035 11.9523 185.069 11.9513 185.102 11.9513H190.116V11.4591C189.757 11.3561 189.41 11.2142 189.083 11.0359C188.74 10.8494 188.427 10.6138 188.154 10.3368C187.795 10.1296 187.471 9.86699 187.194 9.55887C186.835 9.15171 186.586 8.66063 186.469 8.1316C186.437 7.98178 186.411 7.83054 186.393 7.67836C186.338 7.24585 186.311 6.69469 186.311 6.02487C186.309 5.04351 186.37 4.06302 186.494 3.08942C186.522 2.87294 186.553 2.65693 186.588 2.44145C186.605 2.31555 186.642 2.19317 186.698 2.07917C186.814 1.85327 187.008 1.71334 187.281 1.65939C187.372 1.64196 187.466 1.63352 187.559 1.63419H196.517C196.672 1.63328 196.827 1.65087 196.978 1.68657C197.111 1.71826 197.239 1.76684 197.359 1.83108C197.604 1.96234 197.785 2.14611 197.904 2.38238C198.071 2.42723 198.229 2.49929 198.372 2.59561C198.492 2.67791 198.599 2.77874 198.687 2.8943C198.84 3.09483 198.935 3.33283 198.962 3.58282C198.97 3.65489 198.975 3.72741 198.975 3.8V5.43419C198.975 5.5202 198.967 5.60605 198.951 5.69055C198.932 5.78925 198.899 5.87674 198.855 5.953C198.825 6.00444 198.789 6.05177 198.747 6.09378C198.613 6.22701 198.424 6.30143 198.182 6.31705C198.149 6.31918 198.116 6.32023 198.083 6.3202H191.463C191.463 6.39712 191.464 6.47404 191.464 6.55096C191.467 6.78237 191.473 6.94829 191.483 7.0487C191.63 7.06899 191.777 7.08488 191.925 7.09635C192.247 7.12234 192.635 7.13835 193.089 7.14439C193.234 7.14628 193.379 7.1472 193.525 7.14715C194.414 7.14811 195.302 7.1129 196.189 7.04161C196.311 7.03161 196.434 7.02084 196.557 7.00932L196.795 6.98963C197.125 6.98963 197.416 7.05855 197.667 7.19637C197.918 7.33419 198.116 7.5278 198.261 7.7772C198.591 7.86908 198.856 8.04628 199.054 8.3088C199.186 8.48681 199.276 8.69266 199.316 8.9105C199.34 9.03667 199.352 9.16485 199.351 9.29326V10.5731C199.351 11.1243 199.074 11.4394 198.519 11.5181C198.069 11.5728 197.619 11.6227 197.169 11.6678C196.758 11.7086 196.37 11.7425 196.004 11.7694C195.884 11.7781 195.765 11.7862 195.645 11.7938V11.9513H199.093C199.239 11.9505 199.384 11.966 199.526 11.9976C199.666 12.0288 199.8 12.0795 199.926 12.1482C200.164 12.2794 200.349 12.4632 200.481 12.6995C200.811 12.7914 201.072 12.9686 201.264 13.2311C201.413 13.4385 201.507 13.6807 201.536 13.9344C201.546 14.0146 201.551 14.0953 201.551 14.1762V15.6922C201.552 15.7782 201.544 15.8641 201.528 15.9486C201.508 16.0473 201.476 16.1348 201.431 16.211C201.402 16.2625 201.365 16.3098 201.323 16.3518C201.189 16.485 201.001 16.5595 200.759 16.5751C200.726 16.5772 200.692 16.5783 200.659 16.5782ZM199.767 15.0031V13.487C199.767 13.1416 199.624 12.9338 199.339 12.8639C199.258 12.8453 199.176 12.8364 199.093 12.8373H193.861V10.258C195.064 10.2186 196.299 10.1136 197.567 9.943V8.60414C197.568 8.53202 197.561 8.46006 197.545 8.38953C197.511 8.23504 197.436 8.11624 197.32 8.03316C197.163 7.92106 196.95 7.874 196.68 7.89199C196.665 7.89293 196.651 7.89404 196.636 7.89533C195.645 8.00034 194.601 8.05285 193.505 8.05285C193.197 8.05326 192.889 8.04735 192.581 8.03513C192.292 8.02318 192.022 8.00533 191.772 7.98157C191.59 7.96438 191.407 7.94219 191.226 7.91502C191.087 7.89697 190.949 7.87113 190.814 7.83764C190.528 7.76597 190.303 7.66438 190.138 7.53286C190.137 7.53227 190.136 7.53168 190.136 7.53108C189.942 7.37552 189.807 7.15935 189.752 6.91777C189.737 6.85714 189.727 6.79565 189.719 6.73368C189.709 6.64971 189.701 6.56548 189.696 6.48106C189.685 6.32381 189.68 6.1455 189.68 5.94611C189.68 5.39481 189.7 4.99447 189.739 4.74507H197.191V3.11088C197.192 3.02795 197.18 2.94536 197.154 2.86653C197.076 2.64497 196.878 2.52972 196.558 2.52079C196.544 2.52041 196.531 2.52021 196.517 2.5202H187.48C187.335 3.40371 187.242 4.29493 187.201 5.18926C187.189 5.4742 187.183 5.75936 187.183 6.04456C187.183 6.5528 187.205 6.99882 187.251 7.38263C187.272 7.56798 187.302 7.75221 187.341 7.93471C187.476 8.51122 187.816 9.0199 188.299 9.36709C188.333 9.39238 188.367 9.417 188.402 9.44093C188.648 9.6074 188.915 9.74149 189.195 9.83983C189.636 9.99852 190.154 10.1051 190.75 10.1596L191.008 10.1793V12.8373H185.102V14.3534C185.102 14.6988 185.245 14.9066 185.53 14.9765C185.611 14.9951 185.693 15.0041 185.776 15.0031H199.767Z" fill="#C97212"/>
<path id="15" fill-rule="evenodd" clip-rule="evenodd" d="M216.216 11.2425V9.88393C216.216 9.53845 216.073 9.33073 215.788 9.26077C215.707 9.24216 215.625 9.23324 215.543 9.23419H210.311V8.486C211.474 8.46592 212.509 8.41506 213.417 8.33341C213.683 8.30962 213.949 8.28172 214.215 8.24973V7.12745C214.215 7.04941 214.207 6.97157 214.189 6.89551C214.16 6.77607 214.108 6.67585 214.031 6.59486C214.011 6.57407 213.99 6.55466 213.967 6.53678C213.884 6.47185 213.788 6.42581 213.685 6.40191C213.568 6.37329 213.434 6.36575 213.283 6.37927C212.894 6.41572 212.505 6.44375 212.115 6.46334C211.419 6.49917 210.646 6.51709 209.795 6.51709C209.027 6.51709 208.386 6.50134 207.871 6.46984C207.812 6.46623 207.753 6.4623 207.695 6.45802C207.352 6.43676 207.081 6.40473 206.882 6.36194C206.839 6.3528 206.796 6.34216 206.753 6.33004C206.706 6.31654 206.659 6.3003 206.613 6.28141C206.487 6.22851 206.401 6.16269 206.357 6.08393C206.334 6.04258 206.316 5.99861 206.304 5.953C206.28 5.86728 206.268 5.76392 206.268 5.64289C206.268 5.63896 206.268 5.63502 206.268 5.63108H213.68V1.83108C213.681 1.74646 213.671 1.66204 213.651 1.57985C213.595 1.3655 213.457 1.23758 213.237 1.19611C213.18 1.18588 213.123 1.18094 213.065 1.18134H203.969V2.44144C203.969 2.78692 204.112 2.99464 204.397 3.0646C204.478 3.08323 204.56 3.09215 204.643 3.09118H211.301V3.89844H204.068C203.975 4.41035 203.929 4.98134 203.929 5.61139C203.929 5.73784 203.931 5.86427 203.937 5.9906C203.948 6.24892 203.972 6.4638 204.008 6.63522C204.06 6.8913 204.164 7.13421 204.314 7.34915C204.468 7.56488 204.668 7.74454 204.9 7.87564C205.067 7.96975 205.243 8.04668 205.425 8.10521C205.869 8.25249 206.44 8.35317 207.14 8.40725L207.457 8.42693V9.23419H201.551V10.5927C201.551 10.9382 201.694 11.1459 201.979 11.2159C202.06 11.2345 202.142 11.2434 202.225 11.2425H216.216ZM211.559 18.1927H211.48C211.393 18.1852 211.307 18.1685 211.224 18.1429C211.07 18.0948 210.948 18.0162 210.856 17.9072C210.774 17.8089 210.715 17.6934 210.685 17.5694C210.663 17.4859 210.651 17.395 210.648 17.2967C210.648 17.2803 210.647 17.264 210.647 17.2477V15.7513H205.237C205.091 15.7522 204.946 15.7367 204.804 15.7052C204.664 15.6739 204.53 15.6231 204.405 15.5544C204.167 15.4231 203.982 15.2394 203.85 15.0031C203.52 14.9112 203.259 14.734 203.067 14.4715C202.917 14.2641 202.823 14.0219 202.794 13.7682C202.784 13.688 202.779 13.6072 202.78 13.5264V12.7979C202.304 12.706 201.954 12.4632 201.729 12.0694C201.399 11.9775 201.138 11.8003 200.946 11.5378C200.797 11.3304 200.703 11.0883 200.674 10.8345C200.664 10.7543 200.659 10.6736 200.659 10.5927V9.23419C200.658 9.14825 200.666 9.06246 200.682 8.97803C200.702 8.87919 200.734 8.79164 200.778 8.71538C200.808 8.66393 200.845 8.6166 200.887 8.5746C201.021 8.4415 201.209 8.36708 201.451 8.35133C201.484 8.3492 201.518 8.34815 201.551 8.34818H204.028C203.579 7.98065 203.282 7.47529 203.136 6.83212C203.116 6.74456 203.1 6.65605 203.088 6.5669C203.062 6.37251 203.046 6.13643 203.04 5.85869C203.038 5.7697 203.037 5.6807 203.037 5.5917C203.037 5.22546 203.053 4.85938 203.086 4.49462C203.108 4.26207 203.138 4.03038 203.176 3.79999C203.187 3.74553 203.2 3.69165 203.216 3.63854C203.253 3.52198 203.299 3.43141 203.354 3.36683C203.169 3.10431 203.077 2.79585 203.077 2.44144V1.18134C203.076 1.0954 203.084 1.00961 203.1 0.925184C203.12 0.826344 203.152 0.738794 203.196 0.662531C203.226 0.611082 203.263 0.563752 203.305 0.521754C203.439 0.388655 203.627 0.314231 203.869 0.298479C203.902 0.296352 203.935 0.295301 203.969 0.295329H213.065C213.254 0.292995 213.442 0.321531 213.622 0.379795C213.939 0.486773 214.189 0.695281 214.371 1.00532C214.379 1.01796 214.386 1.0307 214.393 1.04352C214.723 1.12227 214.984 1.29619 215.176 1.56528C215.367 1.83436 215.463 2.15267 215.463 2.5202V6.3202C215.463 6.40749 215.459 6.47666 215.449 6.52772C215.448 6.53737 215.446 6.54696 215.443 6.55647C215.813 6.85837 215.998 7.2784 215.998 7.81657V8.40725C216.176 8.44927 216.344 8.52184 216.496 8.62166C216.677 8.74319 216.826 8.90597 216.93 9.09636C217.26 9.18825 217.521 9.36545 217.713 9.62797C217.862 9.83541 217.956 10.0775 217.985 10.3313C217.995 10.4115 218 10.4922 218 10.573V11.9316C218.001 12.0176 217.993 12.1035 217.977 12.1879C217.957 12.2867 217.925 12.3741 217.88 12.4504C217.851 12.5018 217.814 12.5492 217.772 12.5912C217.638 12.7244 217.45 12.7988 217.208 12.8145C217.175 12.8166 217.141 12.8176 217.108 12.8176H215.78C215.833 12.962 215.86 13.1392 215.86 13.3492V15.1212V16.0072C215.86 16.1679 215.856 16.3286 215.848 16.489C215.84 16.6409 215.828 16.7816 215.812 16.9112C215.799 17.0174 215.782 17.1231 215.761 17.228C215.628 17.7924 215.338 18.2157 214.889 18.4979C214.665 18.6358 214.421 18.7383 214.165 18.8017C213.954 18.8566 213.724 18.8926 213.475 18.9096C213.358 18.9175 213.242 18.9214 213.125 18.9212C212.852 18.9212 212.634 18.9123 212.47 18.8945C212.437 18.891 212.404 18.8868 212.372 18.8819C211.925 18.8186 211.658 18.6025 211.568 18.2337C211.565 18.2201 211.562 18.2064 211.559 18.1927ZM211.539 14.1762V17.3067C211.711 17.333 211.949 17.3461 212.253 17.3461C212.454 17.3477 212.656 17.3322 212.855 17.2998C213.059 17.2648 213.236 17.2098 213.387 17.1348C213.546 17.0614 213.684 16.9509 213.79 16.8128C213.896 16.6748 213.967 16.5132 213.997 16.342C214.04 16.1688 214.066 15.835 214.073 15.3406C214.075 15.2281 214.076 15.1156 214.076 15.0031V13.8808V12.6601C214.076 12.3146 213.933 12.1069 213.647 12.0369C213.567 12.0183 213.485 12.0094 213.402 12.0104H203.671V13.5264C203.671 13.8719 203.814 14.0796 204.1 14.1496C204.18 14.1682 204.263 14.1771 204.345 14.1762H211.539Z" fill="#C97212"/>
</g>
</g>
<defs>
<clipPath id="clip0_8_394">
<rect width="218" height="19" fill="white"/>
</clipPath>
</defs>
</svg>
