<svg width="228" height="56" viewBox="0 0 228 56" fill="none" xmlns="http://www.w3.org/2000/svg">
<g id="&#236;&#149;&#148;&#234;&#184;&#176;&#235;&#185;&#181;">
<path id="0" fill-rule="evenodd" clip-rule="evenodd" d="M50.2523 54.8016H43.2803C41.695 54.8016 40.3348 54.3494 39.1998 53.4451C38.5064 52.8838 37.9433 52.1773 37.5498 51.3751C37.2583 50.7985 37.0247 50.1501 36.8488 49.4299C35.4796 51.1662 33.6601 52.5498 31.3901 53.5807C30.3305 54.0525 29.2223 54.4059 28.0857 54.6344C27.0163 54.8576 25.8594 55.005 24.6149 55.0766C24.0094 55.1108 23.4031 55.1277 22.7967 55.1271C21.3899 55.1328 19.9842 55.0417 18.5898 54.8542C17.1222 54.6505 15.768 54.3328 14.5271 53.9008C14.1531 53.7709 13.7838 53.6279 13.4197 53.4722C11.6399 52.7262 10.0088 51.664 8.6047 50.3366C8.07169 49.8272 7.57656 49.2794 7.12328 48.6974C6.08967 47.3558 5.24896 45.8751 4.6258 44.2986C4.19973 43.2324 3.8513 42.1366 3.58324 41.0198C2.86767 38.0764 2.49871 34.7426 2.47637 31.0182C2.47565 30.8976 2.47529 30.7769 2.47529 30.6563C2.47592 28.765 2.49664 26.8738 2.53745 24.983C2.54335 24.7037 2.54966 24.4245 2.55636 24.1452C2.60263 22.4052 2.76986 20.6704 3.05683 18.9537C3.15655 18.3488 3.269 17.746 3.39408 17.1458C2.70949 16.133 2.16903 15.0659 1.77269 13.9446C1.54599 13.3065 1.34549 12.6594 1.17169 12.0048C1.06122 11.5876 0.964247 11.1668 0.880922 10.7433C0.787471 10.2694 0.709602 9.79257 0.647442 9.31355C0.58763 8.84801 0.548537 8.40544 0.530161 7.98583C0.52998 7.98258 0.5298 7.97932 0.529621 7.97607C0.52107 7.78058 0.513143 7.58507 0.50584 7.38953C0.492148 7.01189 0.483141 6.68706 0.478817 6.41504C0.47684 6.30237 0.475759 6.18969 0.475574 6.077C0.473669 5.73866 0.496429 5.40063 0.543673 5.06562C0.593756 4.72596 0.671402 4.42084 0.776613 4.15027C0.900376 3.81586 1.09238 3.5111 1.34032 3.25554C1.91681 2.67678 2.61942 2.33314 3.44813 2.22462C3.58374 2.20492 3.72003 2.19026 3.85672 2.18067C3.95458 2.1739 4.05264 2.17046 4.15073 2.17036C4.69516 2.17036 5.15924 2.27526 5.54297 2.48506C5.56553 2.49732 5.58787 2.50999 5.60998 2.52304C5.76962 2.61866 5.92439 2.72224 6.0737 2.8334C6.22792 2.94735 6.38915 3.07612 6.55742 3.21973C6.69457 3.33725 6.82918 3.45773 6.96115 3.58109C7.20813 3.82835 7.46263 4.06793 7.72428 4.29948C7.91726 4.4705 8.1133 4.63801 8.31231 4.80192C8.73967 5.15626 9.19661 5.47303 9.67806 5.74874C9.74477 5.78669 9.81198 5.82377 9.87965 5.85997C9.97385 5.90758 10.0696 5.95209 10.1666 5.99344C10.3965 6.09039 10.5891 6.14537 10.7444 6.15839C10.9606 6.17648 11.0867 6.18552 11.1227 6.18552C11.447 6.18552 11.7533 6.11318 12.0415 5.96849C13.4827 5.24503 14.924 4.6301 16.3652 4.12368C17.0735 3.87936 17.802 3.69904 18.5422 3.58489C19.2322 3.47456 19.9694 3.40565 20.7538 3.37816C21.0203 3.36877 21.287 3.36407 21.5537 3.36406C23.1751 3.36406 24.6614 3.51779 26.0125 3.82526C27.3637 4.13272 28.6248 4.59393 29.7958 5.20886C30.9668 5.8238 32.0657 6.61055 33.0926 7.56912C33.745 8.18184 34.3555 8.83806 34.9199 9.5333C35.3108 10.013 35.6838 10.5071 36.0381 11.0146C36.0143 10.5753 35.9826 10.1364 35.943 9.69825C35.876 8.96828 35.7906 8.33092 35.6868 7.78616C35.5276 6.95021 35.377 6.36801 35.235 6.03956C35.2325 6.03395 35.23 6.02834 35.2274 6.02274C35.0013 5.71392 34.785 5.39797 34.5789 5.07538C34.4476 4.86987 34.3214 4.66109 34.2005 4.44923C34.0989 4.27265 34.0113 4.08833 33.9384 3.89796C33.8249 3.59737 33.7682 3.31088 33.7682 3.0385C33.7682 2.58562 33.9772 2.16168 34.3951 1.76667C34.4459 1.7187 34.4981 1.67238 34.5518 1.62777C35.0743 1.1937 36.0201 0.777712 37.3893 0.379813C37.7827 0.27238 38.2292 0.182491 38.7286 0.110146C38.7325 0.109602 38.7365 0.109059 38.7404 0.108518C39.2449 0.0361726 39.7493 0 40.2537 0C40.5883 0.00087417 40.9228 0.0148112 41.2563 0.0417794C41.7107 0.0772286 42.1962 0.135647 42.7129 0.217036C43.5109 0.344877 44.2958 0.545005 45.0579 0.81497C45.2049 0.866602 45.351 0.920505 45.4963 0.976661C46.4408 1.34396 47.3495 1.79843 48.2105 2.33422C48.2245 2.34288 48.2386 2.35156 48.2526 2.36026C49.1534 2.92094 49.9461 3.63535 50.6307 4.50349C50.7082 4.13428 50.8292 3.77564 50.9911 3.43513C51.1607 3.0795 51.3857 2.75328 51.6575 2.46878C51.8765 2.23599 52.1358 2.04514 52.4228 1.90557C52.7413 1.75546 53.0893 1.67906 53.4411 1.68203C53.703 1.68414 53.963 1.72622 54.2123 1.80682C54.4177 1.87121 54.6285 1.96056 54.8447 2.07486C54.9183 2.11387 54.9909 2.15476 55.0625 2.19749C55.296 2.33917 55.5155 2.50287 55.718 2.68636C56.087 3.01589 56.463 3.44074 56.846 3.9609C56.9541 4.10559 57.1433 4.30454 57.4135 4.55775C57.6455 4.77515 57.9307 4.99924 58.269 5.23002C58.3258 5.26872 58.3829 5.30689 58.4404 5.34451C58.8547 5.6158 59.3411 5.85092 59.8996 6.04987C60.2253 6.16404 60.5618 6.24423 60.9038 6.28916C61.207 6.32954 61.5125 6.3493 61.8183 6.3483C63.1514 6.3483 64.4665 6.26691 65.7637 6.10413C67.0608 5.94136 68.3399 5.76954 69.601 5.58867C71.1143 5.37164 72.6095 5.16364 74.0868 4.96469C75.5641 4.76575 77.0594 4.66627 78.5727 4.66627C81.1078 4.66627 83.1181 4.93395 84.6037 5.4693C84.6382 5.48174 84.6726 5.4944 84.7069 5.50728C86.2022 6.06796 87.3102 6.88184 88.0308 7.94894C88.494 8.64387 88.8433 9.40886 89.0652 10.2148C89.2132 10.7434 89.3191 11.283 89.3819 11.8285C89.5621 13.3477 89.6522 15.0478 89.6522 16.9288V49.3757C89.6549 49.8662 89.6231 50.3563 89.5571 50.8423C89.3744 52.1268 88.9287 53.0577 88.2199 53.635C87.437 54.2727 86.3935 54.6491 85.0896 54.7641C84.7916 54.7897 84.4926 54.8022 84.1935 54.8016H66.6824C65.4379 54.8016 64.319 54.7149 63.3256 54.5417C63.2555 54.5294 63.1854 54.5165 63.1154 54.5031C62.3439 54.3596 61.5917 54.1261 60.8741 53.8075C60.6625 53.7128 60.4547 53.61 60.2509 53.4993C59.4229 53.0457 58.6607 52.4805 57.9853 51.8195C57.9384 51.7739 57.892 51.728 57.8459 51.6817C57.1072 50.9401 56.3776 50.0268 55.657 48.9416V49.3757C55.657 50.8949 55.1345 52.179 54.0896 53.228C53.5995 53.7312 53.0133 54.1298 52.3661 54.4001C51.7189 54.6704 51.0241 54.8067 50.3231 54.801C50.2995 54.8013 50.2759 54.8015 50.2523 54.8016ZM56.9 16.3319V42.7018C56.9015 43.125 56.9369 43.5474 57.006 43.965C57.0496 44.2334 57.1044 44.4998 57.1703 44.7636C57.344 45.4514 57.6717 46.0903 58.1285 46.6318C58.1599 46.6697 58.1918 46.7071 58.2242 46.7441C58.5139 47.0707 58.8446 47.3583 59.2078 47.5998C59.5227 47.8125 59.8749 48.0067 60.2644 48.1825C60.3048 48.2007 60.3454 48.2186 60.386 48.2362C60.7743 48.4009 61.1778 48.5267 61.5907 48.6117C62.2836 48.7593 63.0801 48.8331 63.9801 48.8331H81.4912C81.6993 48.8342 81.9073 48.8193 82.1132 48.7886C82.3251 48.7557 82.5164 48.7045 82.6872 48.635C82.8502 48.5703 83.0026 48.4817 83.1396 48.3719C83.4999 48.0792 83.6887 47.5488 83.706 46.7804C83.7068 46.7412 83.7072 46.702 83.7071 46.6627V15.0297C83.7077 14.5492 83.6974 14.0687 83.6763 13.5886C83.6496 13.0041 83.6058 12.4626 83.5449 11.9641C83.4491 11.1766 83.2534 10.5033 82.958 9.94404C82.9214 9.87476 82.8828 9.80655 82.8423 9.73948C82.5116 9.19482 82.0334 8.75579 81.4636 8.47362C81.4015 8.44182 81.3386 8.41161 81.275 8.38301C80.7731 8.15765 80.1548 8.01495 79.4201 7.95491C79.1382 7.93236 78.8555 7.92132 78.5727 7.92181C77.1314 7.92181 75.7082 8.01224 74.303 8.1931C72.8978 8.37397 71.5016 8.56387 70.1144 8.76282C68.7272 8.96177 67.349 9.15168 65.9798 9.33254C64.6107 9.5134 63.2235 9.60384 61.8183 9.60384C60.7734 9.60384 59.8186 9.4501 58.9538 9.14264C58.5552 9.00193 58.1634 8.84223 57.7799 8.66407C57.4119 8.4935 57.0548 8.29996 56.7109 8.08459C56.4493 7.92031 56.1941 7.7462 55.9456 7.56261C55.7006 7.38067 55.4781 7.19872 55.2781 7.01677C55.2327 6.97541 55.1878 6.93345 55.1435 6.89089C54.825 6.58487 54.5863 6.33238 54.4274 6.13343C54.3845 6.08024 54.344 6.02521 54.3058 5.96849C54.2769 5.93179 54.2462 5.89648 54.2139 5.86268C54.1458 5.79214 54.0822 5.74422 54.0232 5.71889C53.9931 5.7052 53.9605 5.69781 53.9275 5.69719L53.8194 5.75145C53.7625 5.78003 53.7281 5.85382 53.7162 5.97283C53.7128 6.00745 53.7112 6.04222 53.7113 6.077C53.707 7.34512 53.811 8.61127 54.0221 9.86157C54.1356 10.5247 54.2844 11.1813 54.468 11.8285C54.7479 12.835 55.159 13.8002 55.6905 14.6988C56.0388 15.282 56.444 15.8291 56.9 16.3319ZM35.6598 26.2613C35.6681 24.4652 35.5607 22.6703 35.3382 20.8881C35.1083 19.1181 34.7549 17.5115 34.2778 16.0682C33.7663 14.4531 33.0013 12.9303 32.0117 11.5572C30.9984 10.1628 29.6949 9.00664 28.1917 8.16906C26.6885 7.33148 25.0216 6.83255 23.3069 6.70695C22.7244 6.64796 22.1392 6.6188 21.5537 6.61959C19.8602 6.61959 18.392 6.85472 17.1489 7.32496C15.9058 7.7952 14.6538 8.31971 13.3927 8.89847C13.2269 8.96503 12.9617 9.07011 12.5971 9.21371C12.565 9.2262 12.533 9.23868 12.5009 9.25115C12.2659 9.34478 12.0217 9.41316 11.7724 9.45517C11.6112 9.48175 11.4482 9.49518 11.2849 9.49532C10.7882 9.49759 10.2929 9.44224 9.80885 9.33037C9.5948 9.28014 9.38385 9.21746 9.17705 9.14264C8.59678 8.93454 8.04137 8.6623 7.52107 8.33092C7.47828 8.30349 7.43576 8.27564 7.39352 8.24736C6.90066 7.91901 6.43228 7.55506 5.99209 7.15838C5.96368 7.13267 5.93539 7.1068 5.90724 7.08079C5.45685 6.66481 5.05151 6.27595 4.6912 5.91423C4.65718 5.87975 4.61669 5.85241 4.57206 5.83378C4.52743 5.81515 4.47956 5.80561 4.43123 5.80571C4.42781 5.80567 4.42439 5.80567 4.42096 5.80571C4.39391 5.80463 4.36716 5.81177 4.34421 5.82619C4.32127 5.84062 4.30318 5.86165 4.29233 5.88655C4.26999 5.93141 4.25882 5.99489 4.25882 6.077C4.25882 6.47129 4.27648 7.06994 4.31179 7.87298C4.31215 7.88021 4.31251 7.88744 4.31287 7.89468C4.33292 8.32244 4.37296 8.74903 4.43285 9.17302C4.4923 9.59986 4.57175 10.0468 4.6712 10.5138C4.6778 10.5451 4.68446 10.5764 4.6912 10.6076C4.8595 11.3719 5.08515 12.1223 5.36624 12.8523C5.46826 13.1195 5.57656 13.3841 5.69105 13.6461C6.14144 14.677 6.76298 15.6085 7.55566 16.4405C6.94313 18.3576 6.56481 20.2929 6.42068 22.2462C6.28766 24.0268 6.21592 25.8116 6.20558 27.5972C6.20494 27.7126 6.20458 27.828 6.2045 27.9434C6.2045 28.7753 6.22251 29.6254 6.25854 30.4935C6.3306 33.315 6.56481 35.8742 6.96115 38.1712C7.13312 39.1933 7.38706 40.1998 7.7205 41.1809C8.06153 42.1876 8.51384 43.1527 9.06896 44.0583C10.0778 45.686 11.465 46.943 13.2305 47.8293C14.6134 48.5234 16.3166 48.9457 18.3401 49.0962C18.9239 49.1387 19.5091 49.1595 20.0944 49.1586C20.993 49.1616 21.8909 49.1124 22.7838 49.011C24.0135 48.8671 25.1258 48.6178 26.1206 48.2633C27.022 47.9474 27.8868 47.535 28.7002 47.0333C29.2932 46.665 29.85 46.2412 30.3632 45.7674C31.5162 44.7003 32.435 43.4433 33.1196 41.9964C33.6899 40.7822 34.1471 39.5177 34.4854 38.2189C34.5677 37.9061 34.6439 37.5917 34.714 37.2759C35.0519 35.7436 35.287 34.1903 35.4177 32.6265C35.4374 32.3949 35.455 32.1632 35.4706 31.9314C35.5967 30.0685 35.6598 28.1785 35.6598 26.2613ZM49.7119 23.2228V11.5029C49.715 10.9287 49.6667 10.3554 49.5676 9.78994C49.4422 9.09796 49.2352 8.47272 48.9466 7.91421C48.8665 7.75899 48.7792 7.60762 48.685 7.46061C48.2794 6.82018 47.7911 6.23652 47.2328 5.72486C46.9114 5.43293 46.5655 5.16951 46.1989 4.93757C45.226 4.32263 44.1901 3.88856 43.0912 3.63535C42.7033 3.54527 42.3125 3.46818 41.9195 3.40421C41.535 3.34235 41.174 3.29985 40.8364 3.2767C40.6425 3.263 40.4481 3.25594 40.2537 3.25554C39.4971 3.25554 38.8125 3.34597 38.2 3.52683C37.8955 3.62884 37.7341 3.71493 37.7157 3.7851C37.7145 3.78934 37.7137 3.79371 37.7136 3.79813C37.7136 3.8343 37.7316 3.87952 37.7676 3.93377C37.7775 3.94868 37.7872 3.96369 37.7968 3.97881C37.8278 4.02764 37.8716 4.09926 37.9281 4.19368C37.9467 4.22457 37.9653 4.2555 37.9838 4.28646C38.0438 4.39923 38.0981 4.51494 38.1465 4.63317C38.3162 5.04011 38.5162 5.64149 38.7464 6.43728C38.7717 6.5251 38.7967 6.613 38.8215 6.70098C38.9355 7.11567 39.0241 7.53696 39.0869 7.9625C39.2281 8.88056 39.309 9.99251 39.3296 11.2983C39.3332 11.5293 39.335 11.7603 39.335 11.9912V46.6627C39.3325 46.9004 39.3664 47.137 39.4355 47.3643C39.5472 47.7222 39.7671 48.0364 40.0646 48.2633C40.2255 48.3906 40.3981 48.5022 40.5802 48.5965C40.7928 48.705 41.0036 48.7763 41.2125 48.8103C41.3065 48.8255 41.4016 48.8331 41.4968 48.8331H47.55C48.1625 48.8331 48.676 48.6251 49.0903 48.2091C49.2903 48.0111 49.4485 47.7747 49.5553 47.5139C49.6621 47.2531 49.7153 46.9734 49.7119 46.6915C49.7119 46.6819 49.7119 46.6723 49.7119 46.6627V32.8809H52.5763C52.8834 32.8848 53.1878 32.8223 53.4686 32.6975C53.7126 32.5849 53.9326 32.4261 54.1167 32.2298C54.531 31.7958 54.7382 31.2712 54.7382 30.6563V25.3932C54.7382 24.7783 54.531 24.2628 54.1167 23.8468C53.9195 23.646 53.684 23.4873 53.4242 23.3801C53.1644 23.2728 52.8858 23.2194 52.605 23.2228C52.5954 23.2228 52.5859 23.2228 52.5763 23.2228H49.7119ZM32.357 28.0801C32.3341 27.9941 32.2997 27.9116 32.2549 27.8348C31.9666 27.4008 31.4982 27.1566 30.8497 27.1024C30.485 27.072 30.1431 27.0501 29.8239 27.0367C29.5894 27.0266 29.3548 27.0213 29.1202 27.021C29.0526 27.021 28.9851 27.0215 28.9175 27.0226C28.5817 27.028 28.1538 27.0456 27.6339 27.0752C27.0034 27.1114 26.4719 27.1476 26.0395 27.1837C25.9653 27.1899 25.8911 27.1959 25.8169 27.2016C25.5895 27.2194 25.4139 27.2306 25.2899 27.2353C25.2516 27.2369 25.2132 27.2378 25.1748 27.238C25.1505 27.2381 25.1261 27.2379 25.1018 27.2375C24.8774 27.2317 24.7179 27.2 24.6235 27.1425C24.6 27.1298 24.5793 27.1125 24.5626 27.0917C24.5459 27.0708 24.5335 27.0467 24.5262 27.021V26.9667C24.5268 26.9439 24.531 26.9214 24.5387 26.9C24.5675 26.8128 24.6466 26.6932 24.7759 26.5413C24.8178 26.4923 24.8606 26.4441 24.9046 26.397C25.0624 26.2273 25.2481 26.0438 25.4618 25.8463C25.5983 25.7202 25.7369 25.5962 25.8774 25.4746C26.2737 25.1309 26.7061 24.7511 27.1745 24.3351C27.3185 24.2073 27.4604 24.0773 27.6004 23.945C27.8925 23.6699 28.1741 23.3837 28.4446 23.0872C28.5521 22.9695 28.6561 22.8486 28.7564 22.7247C28.8631 22.5923 28.9571 22.4652 29.0386 22.3433C29.1186 22.2253 29.1909 22.1022 29.2553 21.9749C29.4174 21.6493 29.4985 21.378 29.4985 21.161C29.4985 21.1594 29.4985 21.1577 29.4985 21.1561C29.4976 21.047 29.4794 20.9388 29.4445 20.8354C29.4132 20.7678 29.3778 20.7022 29.3385 20.639C29.1641 20.358 28.8903 20.0675 28.517 19.7676C28.3283 19.6173 28.1328 19.4757 27.9312 19.3433C27.7692 19.2362 27.6048 19.1327 27.4383 19.033C26.758 18.6273 26.0462 18.2775 25.3099 17.9868C25.0608 17.8875 24.8098 17.793 24.557 17.7036C24.2475 17.5944 23.9546 17.5009 23.6782 17.4231C23.4055 17.3452 23.1294 17.2798 22.8508 17.2272C22.7404 17.2067 22.6297 17.1872 22.519 17.1686C22.172 17.1107 21.8744 17.072 21.6261 17.0525C21.5121 17.043 21.3978 17.0379 21.2834 17.0373C21.1984 17.0372 21.1133 17.0399 21.0284 17.0455C20.8936 17.0545 20.7687 17.071 20.6538 17.0948C20.5362 17.1183 20.4212 17.1535 20.3106 17.2001C20.152 17.265 20.0114 17.3676 19.9009 17.4991C19.7211 17.7136 19.6145 18.0118 19.581 18.3938C19.5648 18.577 19.5506 18.7604 19.5383 18.944C19.5127 19.3278 19.4999 19.6689 19.4999 19.9673C19.5 20.0418 19.5009 20.1163 19.5026 20.1908C19.5105 20.5605 19.5367 21.0286 19.581 21.5951C19.635 22.2823 19.6891 22.8702 19.7431 23.3585C19.7846 23.7325 19.8101 24.0163 19.8199 24.2098C19.8226 24.2606 19.824 24.3114 19.8242 24.3623C19.8243 24.3876 19.8241 24.4129 19.8237 24.4382C19.8186 24.6589 19.7909 24.8188 19.7404 24.9179C19.7229 24.956 19.6959 24.9889 19.6621 25.0134C19.6562 25.0195 19.6501 25.0252 19.6437 25.0307C19.6138 25.0553 19.5839 25.0676 19.554 25.0676C19.3738 25.0676 19.0675 24.8235 18.6352 24.3351C18.493 24.1746 18.35 24.0149 18.206 23.856C18.0551 23.6893 17.8962 23.5155 17.7294 23.3346C17.5189 23.1065 17.3074 22.8793 17.0949 22.6531C16.8443 22.3859 16.5859 22.1262 16.3198 21.8745C16.0057 21.5766 15.6782 21.2932 15.3383 21.0253C14.9737 20.7392 14.6377 20.5437 14.3304 20.4388C14.1681 20.3806 13.9974 20.3496 13.825 20.3471C13.7757 20.3471 13.7177 20.3556 13.651 20.3726C13.6186 20.381 13.5865 20.3906 13.5548 20.4014C13.1585 20.4737 12.7441 20.8897 12.3117 21.6493C11.8794 22.409 11.465 23.259 11.0687 24.1995C10.9463 24.4888 10.8308 24.781 10.7222 25.0758C10.5154 25.6397 10.3697 26.1344 10.285 26.5598C10.256 26.7048 10.2288 26.8503 10.2034 26.996C10.1555 27.2724 10.1236 27.5051 10.1077 27.6943C10.1003 27.7771 10.0964 27.8602 10.0958 27.9434C10.0957 28.0185 10.0984 28.0936 10.1039 28.1685C10.1184 28.3574 10.1517 28.5174 10.2039 28.6487C10.3979 28.9407 10.6843 29.1585 11.0168 29.2667C11.1998 29.328 11.3897 29.3665 11.5821 29.3812C12.2127 29.4355 12.7801 29.4626 13.2846 29.4626C13.3521 29.4626 13.4197 29.4621 13.4873 29.461C13.7215 29.4574 14.0002 29.4478 14.3233 29.4322C14.4726 29.425 14.6217 29.417 14.7709 29.4084C14.9592 29.3977 15.1475 29.3856 15.3356 29.372C15.5151 29.359 15.6857 29.3451 15.8475 29.3302C16.0293 29.3136 16.2109 29.2945 16.3922 29.2727C16.4695 29.2634 16.5468 29.2543 16.6241 29.2456C16.9462 29.2094 17.1662 29.1913 17.284 29.1913C17.3085 29.1914 17.333 29.1917 17.3575 29.1924C17.5816 29.1978 17.7409 29.2295 17.8353 29.2874C17.8587 29.3 17.8794 29.3172 17.8961 29.338C17.9129 29.3587 17.9252 29.3827 17.9326 29.4084V29.4626C17.9317 29.5049 17.9236 29.5467 17.9088 29.5863C17.8508 29.7513 17.6872 29.9692 17.418 30.2401C17.3218 30.3363 17.2231 30.4298 17.1219 30.5207C16.8473 30.7688 16.5567 31.0332 16.2501 31.3139C15.9365 31.6004 15.6236 31.8876 15.3113 32.1756C14.6447 32.7905 14.0953 33.3693 13.6629 33.9118C13.6058 33.9834 13.5505 34.0563 13.497 34.1305C13.297 34.4083 13.1592 34.6601 13.0835 34.8858C13.04 35.0087 13.0166 35.1379 13.0143 35.2683C13.0143 35.413 13.0324 35.5396 13.0684 35.6481C13.2035 35.9737 13.5109 36.3197 13.9904 36.6861C14.1643 36.8178 14.3435 36.9421 14.5276 37.0589C14.7924 37.2279 15.0624 37.3884 15.3373 37.5401C15.9327 37.8674 16.5466 38.1597 17.1759 38.4153C17.7917 38.6671 18.3496 38.8682 18.8497 39.0187C19.1175 39.1001 19.3885 39.1704 19.6621 39.2292C19.7726 39.2527 19.8834 39.2752 19.9944 39.2965C20.3411 39.3627 20.6387 39.407 20.8873 39.4294C21.001 39.4401 21.1152 39.4457 21.2294 39.4463C21.2707 39.4463 21.3119 39.4456 21.3532 39.4441C21.4973 39.439 21.6322 39.4246 21.758 39.4007C21.8919 39.376 22.0227 39.3367 22.1482 39.2835C22.3069 39.2186 22.4474 39.116 22.5579 38.9845C22.7377 38.77 22.8443 38.4718 22.8778 38.0898C22.894 37.9067 22.9082 37.7235 22.9205 37.5401C22.9461 37.156 22.9589 36.8147 22.9589 36.5163C22.9589 36.0822 22.9319 35.5306 22.8778 34.8614C22.8704 34.769 22.8628 34.6765 22.8551 34.5841C22.8086 34.0285 22.7622 33.5331 22.7157 33.098C22.7065 33.0125 22.6977 32.9269 22.6892 32.8413C22.6633 32.5787 22.6465 32.372 22.6389 32.2211C22.6363 32.1698 22.6348 32.1184 22.6346 32.067C22.6347 32.0417 22.635 32.0164 22.6357 31.9911C22.6407 31.7708 22.6683 31.6109 22.7184 31.5114C22.7359 31.4733 22.7629 31.4405 22.7967 31.4159C22.8328 31.3798 22.8688 31.3617 22.9048 31.3617C23.085 31.3617 23.3913 31.6058 23.8236 32.0942C24.256 32.5825 24.7785 33.1432 25.391 33.7762C25.6495 34.0437 25.9142 34.3051 26.1849 34.5602C26.5044 34.8622 26.8345 35.1526 27.1745 35.4311C27.2107 35.4607 27.2473 35.4898 27.2842 35.5185C27.6114 35.7724 27.9146 35.948 28.1938 36.0453C28.3522 36.1032 28.5192 36.1341 28.6878 36.1365C28.702 36.1364 28.7163 36.1361 28.7305 36.1354C28.7716 36.1336 28.8098 36.1289 28.8451 36.1213C28.8842 36.1131 28.9222 36.0999 28.958 36.0822C29.2614 35.9994 29.5861 35.7255 29.932 35.2607C30.0466 35.1052 30.1544 34.9449 30.2552 34.78C30.4036 34.5391 30.5447 34.2937 30.6783 34.0442C30.987 33.4655 31.2608 32.8687 31.4982 32.257C31.8585 31.3346 32.1017 30.5659 32.2279 29.9509C32.2569 29.8099 32.2841 29.6684 32.3095 29.5266C32.3812 29.1233 32.417 28.8126 32.417 28.5945C32.4172 28.51 32.4131 28.4256 32.4046 28.3416C32.3949 28.2461 32.379 28.159 32.357 28.0801ZM72.5195 39.2292H67.7093H67.6012C67.5297 39.2297 67.4585 39.2197 67.3899 39.1994C67.3307 39.1816 67.2744 39.1551 67.2229 39.1207C67.0563 39.0444 66.9252 38.9069 66.8565 38.7366C66.7772 38.5579 66.7372 38.3264 66.7365 38.042C66.7365 38.0399 66.7365 38.0377 66.7365 38.0355V18.8279L71.8709 18.3395C72.0352 18.3066 72.1846 18.2887 72.3189 18.2858C72.3317 18.2855 72.3445 18.2853 72.3573 18.2853C72.4702 18.2847 72.5829 18.2927 72.6946 18.3091C72.8117 18.3269 72.9169 18.3549 73.0102 18.3932C73.1196 18.4364 73.2192 18.5012 73.3031 18.5837C73.3619 18.6467 73.4078 18.7206 73.4382 18.8013C73.5463 19.0635 73.6004 19.4884 73.6004 20.0758V38.1441C73.6004 38.437 73.5402 38.6695 73.4199 38.8413C73.3301 38.9681 73.2048 39.0654 73.0599 39.1207C72.988 39.1562 72.9119 39.1825 72.8335 39.1988C72.7391 39.2191 72.6344 39.2292 72.5195 39.2292Z" fill="#C97212"/>
<path id="1" fill-rule="evenodd" clip-rule="evenodd" d="M139.429 14.2158V49.3757C139.429 50.8949 138.906 52.179 137.861 53.228C137.371 53.7312 136.785 54.1298 136.138 54.4001C135.491 54.6704 134.796 54.8067 134.095 54.801C134.071 54.8013 134.048 54.8015 134.024 54.8016H126.296C125.395 54.8016 124.548 54.6026 123.755 54.2047C122.963 53.8068 122.278 53.2733 121.702 52.6041C121.205 52.023 120.804 51.3667 120.512 50.6594C120.455 50.5223 120.401 50.3837 120.35 50.2438C120.024 49.3247 119.86 48.3557 119.864 47.38C119.864 47.376 119.864 47.3721 119.864 47.3681V35.3226L116.729 44.2753C116.153 45.8669 115.351 47.2867 114.324 48.5346C113.297 49.7826 112.126 50.8316 110.811 51.6817C109.496 52.5317 108.073 53.1738 106.542 53.6079C105.01 54.0419 103.47 54.259 101.921 54.259C100.407 54.259 98.939 54.06 97.5158 53.6621C96.7722 53.4568 96.0434 53.2008 95.3345 52.896C94.7924 52.6621 94.2662 52.3924 93.7596 52.0886C93.278 51.8011 92.8176 51.4792 92.3819 51.1255C91.9371 50.7651 91.5295 50.3606 91.1654 49.9182C90.6789 49.321 90.3748 48.7341 90.2531 48.1575C90.2131 47.9694 90.1928 47.7775 90.1925 47.5851V47.5308C90.2026 47.2857 90.2762 47.0474 90.406 46.8396C90.7998 46.1491 91.7375 45.3124 93.2191 44.3296C93.7463 43.9861 94.2209 43.5676 94.6281 43.087C94.9817 42.6716 95.297 42.2249 95.5701 41.7523C95.9095 41.1752 96.2208 40.582 96.503 39.9747C96.7308 39.4837 96.9336 38.9814 97.1105 38.4696L101.813 24.6336C101.303 24.7344 100.787 24.7995 100.268 24.8284C100.009 24.8433 99.7486 24.8508 99.4885 24.8506C98.0006 24.8614 96.5221 24.6137 95.1183 24.1187C94.6444 23.9487 94.1816 23.7492 93.7326 23.5213C91.9851 22.635 90.4898 21.369 89.2467 19.7231C88.0036 18.0773 87.0308 16.0878 86.3282 13.7546C85.9091 12.3415 85.6191 10.8929 85.4618 9.42695C85.3344 8.26045 85.2717 7.08772 85.2743 5.91423C85.2711 5.40643 85.325 4.89989 85.4348 4.4042C85.5632 3.8229 85.7924 3.26879 86.112 2.76721C86.6705 1.89906 87.4001 1.46499 88.3009 1.46499C88.6522 1.4617 89.0012 1.52142 89.3316 1.64133C89.5717 1.73071 89.7979 1.85403 90.0034 2.00758C90.4898 2.36931 91.0393 2.96616 91.6518 3.79813C91.6824 3.83887 91.7145 3.8785 91.748 3.91695C91.8597 4.04573 92.0168 4.20507 92.2193 4.39498C92.4293 4.59176 92.6884 4.79414 92.9965 5.00213C93.0877 5.06352 93.18 5.12339 93.2732 5.18173C93.5292 5.34124 93.796 5.48283 94.0714 5.60549C94.3055 5.71002 94.5441 5.80398 94.7865 5.8871C95.1048 5.99515 95.4328 6.07237 95.7658 6.1177C96.0757 6.16147 96.4046 6.18407 96.7527 6.18552C96.7639 6.18554 96.775 6.18554 96.7862 6.18552C97.3785 6.18364 97.9703 6.15177 98.5595 6.09003C99.1677 6.02817 99.8079 5.93611 100.48 5.81385C100.591 5.79367 100.702 5.77287 100.813 5.75145C102.308 5.46207 103.758 5.1546 105.163 4.82905C106.424 4.53967 107.632 4.27741 108.784 4.04229C109.937 3.80717 111.054 3.68961 112.135 3.68961C112.757 3.68813 113.378 3.72147 113.996 3.78945C114.497 3.84461 114.995 3.92903 115.486 4.04229C116.093 4.1819 116.689 4.36097 117.272 4.57837C117.602 4.70185 117.925 4.8398 118.243 4.99182C118.159 4.85673 118.08 4.71941 118.004 4.58C117.864 4.32028 117.761 4.09167 117.697 3.89417C117.689 3.87131 117.682 3.84834 117.675 3.82526C117.585 3.51779 117.54 3.27362 117.54 3.09276C117.541 2.95148 117.559 2.81082 117.594 2.67388C117.625 2.54619 117.67 2.41452 117.729 2.27888C117.773 2.18302 117.83 2.09387 117.899 2.01409C118.029 1.85819 118.215 1.69505 118.458 1.52468C118.556 1.45662 118.655 1.39148 118.756 1.32934C119.315 0.985704 120.116 0.669194 121.161 0.379813C121.555 0.27238 122.001 0.182491 122.5 0.110146C122.504 0.109602 122.508 0.109059 122.512 0.108518C123.017 0.0361726 123.521 0 124.026 0C126.043 0 127.971 0.361726 129.809 1.08518C131.646 1.80863 133.277 2.80338 134.7 4.06942C136.123 5.33546 137.258 6.83663 138.105 8.57292C138.951 10.3092 139.393 12.1902 139.429 14.2158ZM110.946 40.4772L118.837 17.9597C119.333 16.5833 119.628 15.3256 119.723 14.1865C119.745 13.9256 119.756 13.6638 119.756 13.402C119.756 12.1851 119.384 10.9086 118.639 9.57237C118.564 9.4367 118.485 9.30248 118.405 9.16976C118.022 8.56517 117.474 8.08349 116.827 7.78182C115.922 7.33002 114.723 7.06126 113.231 6.97553C112.866 6.95493 112.501 6.9448 112.135 6.94515C111.742 6.94667 111.349 6.96768 110.957 7.00809C110.574 7.04607 110.169 7.10159 109.741 7.17466C109.475 7.22016 109.211 7.27027 108.947 7.32496C107.722 7.57817 106.433 7.86755 105.082 8.1931C103.731 8.51866 102.344 8.80804 100.921 9.06125C99.8457 9.25508 98.7589 9.37599 97.6677 9.42315C97.374 9.43513 97.0801 9.4411 96.7862 9.44106C96.2141 9.44347 95.6428 9.39608 95.0789 9.29944C94.6583 9.22644 94.2442 9.11957 93.8407 8.97986C93.4272 8.83696 93.0207 8.67455 92.6225 8.49316C92.2518 8.32453 91.8916 8.13374 91.5437 7.92181C90.9888 7.58142 90.5197 7.24104 90.1363 6.90065C90.0729 6.84437 90.0105 6.78684 89.9493 6.72811C89.6308 6.42209 89.3921 6.16961 89.2332 5.97066C89.1903 5.91746 89.1497 5.86243 89.1116 5.80571C89.0826 5.76901 89.052 5.73371 89.0197 5.6999C88.9516 5.62937 88.888 5.58144 88.8289 5.55612C88.7989 5.54242 88.7663 5.53504 88.7333 5.53441L88.6252 5.58867C88.5683 5.61725 88.5338 5.69104 88.522 5.81005C88.5186 5.84467 88.517 5.87944 88.5171 5.91423C88.5118 7.28011 88.6356 8.64341 88.8868 9.98582C89.0312 10.7472 89.2237 11.4985 89.4629 12.2354C89.7904 13.266 90.2687 14.2419 90.8822 15.1312C91.3477 15.7985 91.897 16.4027 92.5165 16.9288C92.8421 17.2129 93.1846 17.4768 93.5423 17.7188C93.9808 18.0133 94.4136 18.2473 94.8405 18.4209C95.5868 18.7211 96.3827 18.8774 97.1867 18.8816C97.2153 18.8819 97.244 18.8821 97.2726 18.8821C97.3447 18.8821 97.6239 18.8731 98.1103 18.855C98.5802 18.8376 99.3775 18.6852 100.502 18.3976C100.543 18.3873 100.583 18.377 100.623 18.3667C101.441 18.1554 102.378 17.88 103.433 17.5403C103.939 17.3772 104.444 17.2095 104.947 17.0373C105.199 16.9288 105.479 16.8474 105.785 16.7931C105.893 16.7739 106.002 16.7574 106.111 16.7438C106.215 16.7307 106.312 16.7217 106.402 16.7166C106.458 16.7135 106.513 16.7118 106.569 16.7118C106.705 16.7118 106.862 16.7273 107.039 16.7584C107.098 16.7688 107.158 16.7804 107.217 16.7931C107.335 16.8178 107.446 16.8661 107.545 16.9351C107.644 17.0041 107.727 17.0924 107.791 17.1947C107.798 17.2054 107.805 17.2163 107.812 17.2272C107.941 17.4377 108.012 17.641 108.026 17.8371C108.027 17.8598 108.028 17.8827 108.028 17.9055C108.027 18.0238 108.017 18.142 107.997 18.2587C107.978 18.3737 107.95 18.4947 107.913 18.6217C107.898 18.6726 107.883 18.7233 107.866 18.7736L100.732 39.5548C100.46 40.3029 100.147 41.0351 99.7933 41.7479C99.4732 42.3956 99.1281 43.0305 98.7589 43.6513C98.2072 44.5968 97.51 45.4487 96.6932 46.1755C96.3323 46.4933 95.9478 46.7831 95.5431 47.0425C95.4563 47.1008 95.4044 47.159 95.3875 47.2172C95.3833 47.231 95.3811 47.2452 95.381 47.2596C95.382 47.2999 95.3954 47.3389 95.4194 47.3713C95.4525 47.4198 95.5071 47.4683 95.5831 47.5167C95.6227 47.5416 95.6634 47.5644 95.7053 47.5851C96.7862 48.0554 97.9392 48.2905 99.1642 48.2905C99.4885 48.2905 100.146 48.2362 101.137 48.1277C102.118 48.0203 103.319 47.6117 104.741 46.902C104.756 46.8946 104.77 46.8872 104.785 46.8797C106.226 46.1563 107.505 45.2248 108.622 44.0854C109.122 43.5813 109.572 43.0308 109.968 42.4414C110.377 41.8318 110.706 41.1716 110.946 40.4772ZM123.107 11.9912V46.6627C123.104 46.9004 123.138 47.137 123.207 47.3643C123.319 47.7222 123.539 48.0364 123.836 48.2633C123.997 48.3906 124.17 48.5022 124.352 48.5965C124.565 48.705 124.775 48.7763 124.984 48.8103C125.078 48.8255 125.173 48.8331 125.269 48.8331H131.322C131.934 48.8331 132.448 48.6251 132.862 48.2091C133.062 48.0111 133.22 47.7747 133.327 47.5139C133.434 47.2531 133.487 46.9734 133.484 46.6915C133.484 46.6819 133.484 46.6723 133.484 46.6627V11.5029C133.487 10.9287 133.439 10.3554 133.339 9.78994C133.214 9.09796 133.007 8.47272 132.718 7.91421C132.638 7.75899 132.551 7.60762 132.457 7.46061C132.051 6.82018 131.563 6.23652 131.005 5.72486C130.683 5.43293 130.337 5.16951 129.971 4.93757C128.998 4.32263 127.962 3.88856 126.863 3.63535C126.475 3.54527 126.084 3.46818 125.691 3.40421C125.307 3.34235 124.946 3.29985 124.608 3.2767C124.414 3.263 124.22 3.25594 124.026 3.25554C123.269 3.25554 122.584 3.34597 121.972 3.52683C121.667 3.62884 121.506 3.71493 121.488 3.7851C121.486 3.78934 121.486 3.79371 121.485 3.79813C121.485 3.8343 121.503 3.87952 121.539 3.93377C121.549 3.94868 121.559 3.96369 121.569 3.97881C121.6 4.02764 121.643 4.09926 121.7 4.19368C121.719 4.22457 121.737 4.2555 121.756 4.28646C121.816 4.39923 121.87 4.51494 121.918 4.63317C122.088 5.04011 122.288 5.64149 122.518 6.43728C122.544 6.5251 122.569 6.613 122.593 6.70098C122.707 7.11567 122.796 7.53696 122.859 7.9625C123 8.88056 123.081 9.99251 123.101 11.2983C123.105 11.5293 123.107 11.7603 123.107 11.9912Z" fill="#C97212"/>
<path id="2" fill-rule="evenodd" clip-rule="evenodd" d="M190.827 44.0583V49.3757C190.827 50.8949 190.305 52.179 189.26 53.228C188.77 53.7312 188.183 54.1298 187.536 54.4001C186.889 54.6704 186.194 54.8067 185.493 54.801C185.47 54.8013 185.446 54.8015 185.422 54.8016H179.369C178.404 54.7984 177.461 54.5139 176.653 53.9828C176.472 53.8667 176.296 53.7416 176.126 53.6079C175.75 53.9531 175.31 54.2201 174.831 54.3935C174.688 54.4461 174.544 54.4917 174.397 54.5303C173.972 54.641 173.539 54.7168 173.101 54.7571C172.777 54.7873 172.452 54.8022 172.127 54.8016H148.995C147.157 54.8016 145.419 54.6659 143.78 54.3946C142.948 54.2614 142.134 54.0395 141.35 53.7326C140.704 53.478 140.087 53.1542 139.51 52.7668C138.66 52.187 137.936 51.4418 137.378 50.5753C137.101 50.1495 136.856 49.7032 136.645 49.24C136.354 48.5888 136.132 47.9086 135.983 47.2107C135.722 46.0373 135.592 44.679 135.592 43.1359V15.8436C135.592 13.9626 135.483 12.5429 135.267 11.5843C135.208 11.3193 135.141 11.0562 135.065 10.7954C134.898 10.2231 134.713 9.77168 134.511 9.44106C134.063 8.51359 133.789 7.76084 133.689 7.1828C133.662 7.03275 133.647 6.88063 133.646 6.72811V6.61959C133.66 6.36591 133.726 6.11788 133.84 5.89082C133.953 5.66376 134.112 5.4625 134.306 5.29947C134.32 5.28719 134.334 5.27507 134.348 5.26312C134.723 4.95189 135.145 4.70161 135.597 4.5214C135.684 4.48599 135.773 4.45288 135.862 4.4221C136.438 4.22316 137.042 4.07846 137.672 3.98803C138.155 3.91894 138.59 3.87626 138.978 3.85998C139.092 3.85506 139.206 3.85253 139.321 3.85239C140.51 3.85239 141.69 3.98803 142.861 4.25933C144.032 4.53062 145.14 4.97374 146.185 5.58867C146.458 5.21451 146.802 4.89752 147.197 4.65542C147.53 4.44598 147.913 4.26873 148.347 4.12368C148.824 3.96202 149.312 3.83705 149.808 3.74984C150.236 3.67496 150.669 3.63666 151.103 3.63535C152.136 3.65698 153.166 3.76295 154.182 3.95222C155.671 4.23726 156.987 4.7104 158.129 5.37164C158.448 5.05491 158.81 4.78428 159.203 4.56752C159.542 4.37982 159.897 4.22223 160.264 4.09655C161.146 3.78908 162.002 3.63535 162.831 3.63535C163.884 3.63874 164.934 3.76492 165.959 4.01136C166.206 4.06991 166.451 4.1345 166.695 4.20507C168.01 4.58488 169.226 5.19077 170.343 6.02274C170.19 5.80498 170.041 5.58448 169.895 5.36133C169.667 5.01118 169.474 4.68906 169.317 4.39498C169.064 3.92473 168.938 3.50875 168.938 3.14702C168.938 3.10137 168.941 3.05575 168.945 3.01029C168.955 2.88043 168.98 2.71801 169.019 2.52304C169.038 2.43835 169.072 2.35759 169.118 2.2843C169.248 2.06799 169.496 1.81677 169.861 1.53065C169.878 1.51773 169.894 1.50489 169.911 1.49212C170.391 1.1228 171.14 0.789287 172.159 0.491586C172.292 0.452681 172.426 0.415421 172.559 0.379813C172.953 0.27238 173.399 0.182491 173.899 0.110146C173.903 0.109602 173.906 0.109059 173.91 0.108518C174.415 0.0361726 174.919 0 175.424 0C175.766 0.00105903 176.108 0.0171713 176.449 0.0482905C176.808 0.0801224 177.188 0.127509 177.59 0.190449C177.751 0.215616 177.912 0.242567 178.072 0.271295C178.855 0.413963 179.624 0.621583 180.372 0.892017C180.635 0.986049 180.895 1.08664 181.153 1.1937C182.198 1.62777 183.224 2.21557 184.233 2.95711C185.152 3.63717 185.973 4.44149 186.672 5.34722C186.762 5.4625 186.85 5.57917 186.936 5.69719C186.952 5.37649 186.99 5.05728 187.05 4.74169C187.187 4.03017 187.433 3.48469 187.788 3.10524C187.818 3.07295 187.849 3.04164 187.881 3.01137C188.44 2.48687 189.079 2.22462 189.8 2.22462C190.128 2.22661 190.454 2.2767 190.767 2.37329C190.972 2.43556 191.173 2.51282 191.367 2.60443C191.908 2.85764 192.412 3.18319 192.881 3.58109C193.457 4.12368 194.115 4.70244 194.853 5.31738C195.145 5.56379 195.467 5.77033 195.812 5.93159C196.249 6.1343 196.724 6.23946 197.204 6.23978C197.282 6.23833 197.359 6.2274 197.434 6.20722C197.594 6.16707 197.786 6.08948 198.012 5.97445C198.132 5.91272 198.25 5.8474 198.366 5.77858C198.746 5.55539 199.205 5.3228 199.746 5.08081C199.96 4.98481 200.176 4.89183 200.393 4.80192C201.028 4.53894 201.763 4.28646 202.598 4.04446C202.862 3.96806 203.127 3.89499 203.393 3.82526C204.564 3.51779 205.924 3.36406 207.473 3.36406C208.906 3.35663 210.336 3.48525 211.745 3.74821C213.383 4.05115 214.968 4.59834 216.445 5.37164C218.967 6.71002 221.048 8.54579 222.687 10.8789C223.897 12.617 224.866 14.5123 225.566 16.5126C225.862 17.3443 226.118 18.1893 226.335 19.0449C226.979 21.6046 227.361 24.2235 227.475 26.8609C227.508 27.5649 227.525 28.2695 227.525 28.9743C227.525 31.1446 227.452 33.306 227.308 35.4582C227.203 37.0849 226.996 38.7033 226.69 40.3041C226.607 40.7343 226.516 41.1628 226.417 41.5895C226.067 43.1124 225.568 44.5966 224.926 46.0203C224.782 46.3376 224.63 46.6513 224.471 46.9611C223.624 48.607 222.507 50.0358 221.12 51.2476C220.216 52.0297 219.214 52.6901 218.139 53.2123C217.442 53.5543 216.722 53.8495 215.986 54.0962C214.97 54.4331 213.926 54.6808 212.868 54.8363C211.593 55.0302 210.209 55.1271 208.716 55.1271C206.537 55.1271 204.608 54.9412 202.927 54.5693C202.721 54.5237 202.516 54.4745 202.312 54.4217C201.276 54.1587 200.268 53.7982 199.299 53.3452C198.677 53.0519 198.076 52.7135 197.502 52.3328C196.115 51.4104 194.889 50.2619 193.827 48.8873C193.201 48.0736 192.622 47.2247 192.093 46.3447C191.643 45.5986 191.221 44.8359 190.827 44.0583ZM146.833 48.8331H169.425C169.633 48.8342 169.841 48.8193 170.047 48.7886C170.259 48.7557 170.45 48.7045 170.621 48.635C170.784 48.5703 170.936 48.4817 171.073 48.3719C171.433 48.0792 171.622 47.5488 171.639 46.7804C171.64 46.7412 171.641 46.702 171.641 46.6627V15.084C171.641 13.6733 171.37 12.4524 170.83 11.4215C170.413 10.6132 169.859 9.88425 169.192 9.26743C169.041 9.12889 168.884 8.99674 168.722 8.87134C167.857 8.20215 166.902 7.70477 165.858 7.37922C165.232 7.18191 164.591 7.04153 163.941 6.9598C163.572 6.91436 163.202 6.89135 162.831 6.89089C162.652 6.89042 162.473 6.90093 162.295 6.92236C162.105 6.94551 161.929 6.98186 161.765 7.03142C161.742 7.03851 161.719 7.04593 161.696 7.05366C161.496 7.12095 161.38 7.17249 161.35 7.2083C161.348 7.2108 161.346 7.21353 161.345 7.21644C161.335 7.2359 161.328 7.25649 161.323 7.27775C161.32 7.29325 161.318 7.30908 161.318 7.32496C161.318 7.38067 161.339 7.45753 161.381 7.55556C161.395 7.5876 161.41 7.61927 161.426 7.65051C161.55 7.86554 161.66 8.08827 161.756 8.31736C161.959 8.79411 162.152 9.3783 162.336 10.0699C162.367 10.1856 162.397 10.3015 162.426 10.4177C162.702 11.5286 162.854 13.0529 162.881 14.9907C162.884 15.2026 162.885 15.4146 162.885 15.6266V24.0367L159.858 24.1995V15.0297C159.865 14.2127 159.775 13.3978 159.59 12.6022C159.288 11.2499 158.58 10.0234 157.561 9.08838C156.03 7.69573 153.877 6.96323 151.103 6.89089C150.931 6.89042 150.759 6.89875 150.587 6.91585C150.416 6.93357 150.258 6.96052 150.112 6.99669C150.045 7.01303 149.979 7.03203 149.914 7.05366C149.714 7.12095 149.598 7.17249 149.568 7.2083C149.566 7.2108 149.564 7.21353 149.563 7.21644C149.553 7.2359 149.546 7.25649 149.541 7.27775C149.537 7.29325 149.536 7.30908 149.536 7.32496C149.536 7.38067 149.557 7.45753 149.599 7.55556C149.613 7.5876 149.628 7.61927 149.644 7.65051C150.328 8.80804 150.761 10.065 150.941 11.4215C151.121 12.778 151.211 14.1073 151.211 15.4095V24.0367L148.13 24.1995V15.301C148.133 14.7171 148.085 14.1341 147.985 13.5588C147.872 12.893 147.666 12.2466 147.374 11.6385C147.03 10.9254 146.579 10.2701 146.035 9.69608C145.828 9.47952 145.607 9.27653 145.374 9.08838C144.545 8.41918 143.599 7.92181 142.537 7.59625C141.495 7.27391 140.411 7.10932 139.321 7.10792C139.142 7.10746 138.963 7.11797 138.785 7.13939C138.595 7.16254 138.419 7.1989 138.255 7.24845C138.232 7.25555 138.209 7.26296 138.186 7.2707C137.985 7.33798 137.87 7.38953 137.84 7.42534C137.838 7.42783 137.836 7.43056 137.834 7.43348C137.825 7.45293 137.817 7.47353 137.813 7.49479C137.809 7.51028 137.808 7.52611 137.807 7.542C137.807 7.5977 137.829 7.67457 137.871 7.7726C137.885 7.80464 137.9 7.8363 137.916 7.86755C138.04 8.08258 138.15 8.30531 138.246 8.53439C138.449 9.01115 138.642 9.59534 138.826 10.287C138.857 10.4026 138.886 10.5186 138.915 10.6348C139.192 11.7456 139.344 13.2699 139.37 15.2077C139.373 15.4197 139.375 15.6316 139.375 15.8436V43.1359C139.377 43.7105 139.457 44.2821 139.614 44.8347C139.641 44.9292 139.669 45.023 139.699 45.1163C139.858 45.6001 140.103 46.051 140.422 46.4473C140.566 46.6285 140.722 46.8001 140.888 46.9611C141.43 47.4878 142.138 47.9188 143.014 48.2541C143.071 48.2759 143.128 48.297 143.185 48.3176C143.588 48.4598 144.003 48.5681 144.424 48.6415C145.13 48.7692 145.933 48.8331 146.833 48.8331ZM221.579 26.2613C221.588 24.4652 221.48 22.6703 221.258 20.8881C221.028 19.1181 220.674 17.5115 220.197 16.0682C219.686 14.4531 218.921 12.9303 217.931 11.5572C216.918 10.1628 215.615 9.00664 214.111 8.16906C212.608 7.33148 210.941 6.83255 209.227 6.70695C208.644 6.64796 208.059 6.6188 207.473 6.61959C205.78 6.61959 204.312 6.85472 203.069 7.32496C201.825 7.7952 200.573 8.31971 199.312 8.89847C199.147 8.96503 198.881 9.07011 198.517 9.21371C198.485 9.2262 198.453 9.23868 198.421 9.25115C198.186 9.34478 197.941 9.41316 197.692 9.45517C197.531 9.48175 197.368 9.49518 197.204 9.49532C196.708 9.49759 196.213 9.44224 195.728 9.33037C195.514 9.28014 195.303 9.21746 195.097 9.14264C194.516 8.93454 193.961 8.6623 193.441 8.33092C193.398 8.30349 193.355 8.27564 193.313 8.24736C192.82 7.91901 192.352 7.55506 191.912 7.15838C191.883 7.13267 191.855 7.1068 191.827 7.08079C191.376 6.66481 190.971 6.27595 190.611 5.91423C190.577 5.87975 190.536 5.85241 190.492 5.83378C190.447 5.81515 190.399 5.80561 190.351 5.80571C190.347 5.80567 190.344 5.80567 190.341 5.80571C190.314 5.80463 190.287 5.81177 190.264 5.82619C190.241 5.84062 190.223 5.86165 190.212 5.88655C190.19 5.93141 190.178 5.99489 190.178 6.077C190.178 6.47129 190.196 7.06994 190.231 7.87298C190.232 7.88021 190.232 7.88744 190.232 7.89468C190.253 8.32244 190.293 8.74903 190.352 9.17302C190.412 9.59986 190.491 10.0468 190.591 10.5138C190.597 10.5451 190.604 10.5764 190.611 10.6076C190.779 11.3719 191.005 12.1223 191.286 12.8523C191.388 13.1195 191.496 13.3841 191.611 13.6461C192.061 14.677 192.683 15.6085 193.475 16.4405C192.863 18.3576 192.484 20.2929 192.34 22.2462C192.207 24.0268 192.136 25.8116 192.125 27.5972C192.125 27.7126 192.124 27.828 192.124 27.9434C192.124 28.7753 192.142 29.6254 192.178 30.4935C192.25 33.315 192.484 35.8742 192.881 38.1712C193.053 39.1933 193.307 40.1998 193.64 41.1809C193.981 42.1876 194.433 43.1527 194.989 44.0583C195.997 45.686 197.385 46.943 199.15 47.8293C200.533 48.5234 202.236 48.9457 204.26 49.0962C204.843 49.1387 205.429 49.1595 206.014 49.1586C206.913 49.1616 207.811 49.1124 208.703 49.011C209.933 48.8671 211.045 48.6178 212.04 48.2633C212.942 47.9474 213.806 47.535 214.62 47.0333C215.213 46.665 215.77 46.2412 216.283 45.7674C217.436 44.7003 218.355 43.4433 219.039 41.9964C219.61 40.7822 220.067 39.5177 220.405 38.2189C220.487 37.9061 220.563 37.5917 220.634 37.2759C220.971 35.7436 221.207 34.1903 221.337 32.6265C221.357 32.3949 221.375 32.1632 221.39 31.9314C221.516 30.0685 221.579 28.1785 221.579 26.2613ZM184.882 23.2228V11.5029C184.885 10.9287 184.837 10.3554 184.738 9.78994C184.612 9.09796 184.405 8.47272 184.117 7.91421C184.036 7.75899 183.949 7.60762 183.855 7.46061C183.449 6.82018 182.961 6.23652 182.403 5.72486C182.081 5.43293 181.736 5.16951 181.369 4.93757C180.396 4.32263 179.36 3.88856 178.261 3.63535C177.873 3.54527 177.483 3.46818 177.089 3.40421C176.705 3.34235 176.344 3.29985 176.006 3.2767C175.812 3.263 175.618 3.25594 175.424 3.25554C174.667 3.25554 173.983 3.34597 173.37 3.52683C173.066 3.62884 172.904 3.71493 172.886 3.7851C172.884 3.78934 172.884 3.79371 172.884 3.79813C172.884 3.8343 172.902 3.87952 172.938 3.93377C172.948 3.94868 172.957 3.96369 172.967 3.97881C172.998 4.02764 173.042 4.09926 173.098 4.19368C173.117 4.22457 173.135 4.2555 173.154 4.28646C173.214 4.39923 173.268 4.51494 173.316 4.63317C173.486 5.04011 173.686 5.64149 173.916 6.43728C173.942 6.5251 173.967 6.613 173.992 6.70098C174.106 7.11567 174.194 7.53696 174.257 7.9625C174.398 8.88056 174.479 9.99251 174.5 11.2983C174.503 11.5293 174.505 11.7603 174.505 11.9912V46.6627C174.502 46.9004 174.536 47.137 174.606 47.3643C174.717 47.7222 174.937 48.0364 175.235 48.2633C175.396 48.3906 175.568 48.5022 175.75 48.5965C175.963 48.705 176.174 48.7763 176.383 48.8103C176.477 48.8255 176.572 48.8331 176.667 48.8331H182.72C183.333 48.8331 183.846 48.6251 184.26 48.2091C184.46 48.0111 184.618 47.7747 184.725 47.5139C184.832 47.2531 184.885 46.9734 184.882 46.6915C184.882 46.6819 184.882 46.6723 184.882 46.6627V32.8809H187.746C188.053 32.8848 188.358 32.8223 188.639 32.6975C188.883 32.5849 189.103 32.4261 189.287 32.2298C189.701 31.7958 189.908 31.2712 189.908 30.6563V25.3932C189.908 24.7783 189.701 24.2628 189.287 23.8468C189.089 23.646 188.854 23.4873 188.594 23.3801C188.334 23.2728 188.056 23.2194 187.775 23.2228C187.765 23.2228 187.756 23.2228 187.746 23.2228H184.882ZM218.277 28.0801C218.254 27.9941 218.219 27.9116 218.174 27.8348C217.886 27.4008 217.418 27.1566 216.769 27.1024C216.405 27.072 216.063 27.0501 215.743 27.0367C215.509 27.0266 215.274 27.0213 215.04 27.021C214.972 27.021 214.905 27.0215 214.837 27.0226C214.501 27.028 214.073 27.0456 213.554 27.0752C212.923 27.1114 212.392 27.1476 211.959 27.1837C211.885 27.1899 211.811 27.1959 211.736 27.2016C211.509 27.2194 211.333 27.2306 211.21 27.2353C211.171 27.2369 211.133 27.2378 211.094 27.238C211.07 27.2381 211.046 27.2379 211.021 27.2375C210.797 27.2317 210.638 27.2 210.543 27.1425C210.52 27.1298 210.499 27.1125 210.482 27.0917C210.465 27.0708 210.453 27.0467 210.446 27.021V26.9667C210.446 26.9439 210.451 26.9214 210.458 26.9C210.487 26.8128 210.566 26.6932 210.696 26.5413C210.737 26.4923 210.78 26.4441 210.824 26.397C210.982 26.2273 211.168 26.0438 211.381 25.8463C211.518 25.7202 211.657 25.5962 211.797 25.4746C212.193 25.1309 212.626 24.7511 213.094 24.3351C213.238 24.2073 213.38 24.0773 213.52 23.945C213.812 23.6699 214.094 23.3837 214.364 23.0872C214.472 22.9695 214.576 22.8486 214.676 22.7247C214.783 22.5923 214.877 22.4652 214.958 22.3433C215.038 22.2253 215.111 22.1022 215.175 21.9749C215.337 21.6493 215.418 21.378 215.418 21.161C215.418 21.1594 215.418 21.1577 215.418 21.1561C215.417 21.047 215.399 20.9388 215.364 20.8354C215.333 20.7678 215.297 20.7022 215.258 20.639C215.084 20.358 214.81 20.0675 214.437 19.7676C214.248 19.6173 214.052 19.4757 213.851 19.3433C213.689 19.2362 213.524 19.1327 213.358 19.033C212.678 18.6273 211.966 18.2775 211.23 17.9868C210.98 17.8875 210.729 17.793 210.477 17.7036C210.167 17.5944 209.874 17.5009 209.598 17.4231C209.325 17.3452 209.049 17.2798 208.77 17.2272C208.66 17.2067 208.549 17.1872 208.439 17.1686C208.092 17.1107 207.794 17.072 207.546 17.0525C207.432 17.043 207.317 17.0379 207.203 17.0373C207.118 17.0372 207.033 17.0399 206.948 17.0455C206.813 17.0545 206.688 17.071 206.573 17.0948C206.456 17.1183 206.341 17.1535 206.23 17.2001C206.072 17.265 205.931 17.3676 205.821 17.4991C205.641 17.7136 205.534 18.0118 205.501 18.3938C205.484 18.577 205.47 18.7604 205.458 18.944C205.432 19.3278 205.42 19.6689 205.42 19.9673C205.42 20.0418 205.421 20.1163 205.422 20.1908C205.43 20.5605 205.456 21.0286 205.501 21.5951C205.555 22.2823 205.609 22.8702 205.663 23.3585C205.704 23.7325 205.73 24.0163 205.739 24.2098C205.742 24.2606 205.744 24.3114 205.744 24.3623C205.744 24.3876 205.744 24.4129 205.743 24.4382C205.738 24.6589 205.71 24.8188 205.66 24.9179C205.643 24.956 205.616 24.9889 205.582 25.0134C205.576 25.0195 205.57 25.0252 205.563 25.0307C205.533 25.0553 205.503 25.0676 205.474 25.0676C205.293 25.0676 204.987 24.8235 204.555 24.3351C204.413 24.1746 204.27 24.0149 204.126 23.856C203.975 23.6893 203.816 23.5155 203.649 23.3346C203.438 23.1065 203.227 22.8793 203.014 22.6531C202.764 22.3859 202.505 22.1262 202.239 21.8745C201.925 21.5766 201.598 21.2932 201.258 21.0253C200.893 20.7392 200.557 20.5437 200.25 20.4388C200.088 20.3806 199.917 20.3496 199.745 20.3471C199.695 20.3471 199.637 20.3556 199.571 20.3726C199.538 20.381 199.506 20.3906 199.474 20.4014C199.078 20.4737 198.664 20.8897 198.231 21.6493C197.799 22.409 197.385 23.259 196.988 24.1995C196.866 24.4888 196.75 24.781 196.642 25.0758C196.435 25.6397 196.289 26.1344 196.205 26.5598C196.176 26.7048 196.148 26.8503 196.123 26.996C196.075 27.2724 196.043 27.5051 196.027 27.6943C196.02 27.7771 196.016 27.8602 196.015 27.9434C196.015 28.0185 196.018 28.0936 196.024 28.1685C196.038 28.3574 196.071 28.5174 196.124 28.6487C196.317 28.9407 196.604 29.1585 196.936 29.2667C197.119 29.328 197.309 29.3665 197.502 29.3812C197.522 29.3831 197.542 29.3849 197.563 29.3867C198.169 29.4373 198.716 29.4626 199.204 29.4626C199.272 29.4626 199.339 29.4621 199.407 29.461C199.641 29.4574 199.92 29.4478 200.243 29.4322C200.392 29.425 200.541 29.417 200.69 29.4084C200.879 29.3977 201.067 29.3856 201.255 29.372C201.435 29.359 201.605 29.3451 201.767 29.3302C201.949 29.3136 202.131 29.2945 202.312 29.2727C202.389 29.2634 202.466 29.2543 202.544 29.2456C202.866 29.2094 203.086 29.1913 203.204 29.1913C203.228 29.1914 203.253 29.1917 203.277 29.1924C203.501 29.1978 203.66 29.2295 203.755 29.2874C203.778 29.3 203.799 29.3172 203.816 29.338C203.832 29.3587 203.845 29.3827 203.852 29.4084V29.4626C203.851 29.5049 203.843 29.5467 203.828 29.5863C203.77 29.7513 203.607 29.9692 203.338 30.2401C203.241 30.3363 203.143 30.4298 203.041 30.5207C202.767 30.7688 202.476 31.0332 202.17 31.3139C201.856 31.6004 201.543 31.8876 201.231 32.1756C200.564 32.7905 200.015 33.3693 199.583 33.9118C199.525 33.9834 199.47 34.0563 199.417 34.1305C199.217 34.4083 199.079 34.6601 199.003 34.8858C198.96 35.0087 198.936 35.1379 198.934 35.2683C198.934 35.413 198.952 35.5396 198.988 35.6481C199.168 36.0822 199.655 36.5525 200.447 37.0589C200.712 37.2279 200.982 37.3884 201.257 37.5401C201.852 37.8674 202.466 38.1597 203.096 38.4153C203.711 38.6671 204.269 38.8682 204.769 39.0187C205.037 39.1001 205.308 39.1704 205.582 39.2292C205.692 39.2527 205.803 39.2752 205.914 39.2965C206.261 39.3627 206.558 39.407 206.807 39.4294C206.921 39.4401 207.035 39.4457 207.149 39.4463C207.19 39.4463 207.232 39.4456 207.273 39.4441C207.417 39.439 207.552 39.4246 207.678 39.4007C207.812 39.376 207.942 39.3367 208.068 39.2835C208.226 39.2186 208.367 39.116 208.477 38.9845C208.657 38.77 208.764 38.4718 208.797 38.0898C208.814 37.9067 208.828 37.7235 208.84 37.5401C208.866 37.156 208.879 36.8147 208.879 36.5163C208.879 36.0822 208.851 35.5306 208.797 34.8614C208.79 34.769 208.782 34.6765 208.775 34.5841C208.728 34.0285 208.682 33.5331 208.635 33.098C208.626 33.0125 208.617 32.9269 208.609 32.8413C208.583 32.5787 208.566 32.372 208.559 32.2211C208.556 32.1698 208.554 32.1184 208.554 32.067C208.554 32.0417 208.555 32.0164 208.555 31.9911C208.56 31.7708 208.588 31.6109 208.638 31.5114C208.655 31.4733 208.682 31.4405 208.716 31.4159C208.722 31.41 208.729 31.4044 208.735 31.3991C208.765 31.3742 208.795 31.3617 208.824 31.3617C209.005 31.3617 209.311 31.6058 209.743 32.0942C210.176 32.5825 210.698 33.1432 211.311 33.7762C211.569 34.0437 211.834 34.3051 212.105 34.5602C212.424 34.8622 212.754 35.1526 213.094 35.4311C213.13 35.4607 213.167 35.4898 213.204 35.5185C213.531 35.7724 213.834 35.948 214.113 36.0453C214.272 36.1032 214.439 36.1341 214.607 36.1365C214.622 36.1364 214.636 36.1361 214.65 36.1354C214.691 36.1336 214.729 36.1289 214.765 36.1213C214.804 36.1131 214.842 36.0999 214.878 36.0822C215.181 35.9994 215.506 35.7255 215.852 35.2607C215.966 35.1052 216.074 34.9449 216.175 34.78C216.323 34.5391 216.464 34.2937 216.598 34.0442C216.907 33.4655 217.18 32.8687 217.418 32.257C217.778 31.3346 218.021 30.5659 218.147 29.9509C218.177 29.8099 218.204 29.6684 218.229 29.5266C218.301 29.1233 218.337 28.8126 218.337 28.5945C218.337 28.51 218.333 28.4256 218.324 28.3416C218.314 28.2461 218.299 28.159 218.277 28.0801ZM150.292 41.1283H148.995C148.436 41.1283 148.148 40.8223 148.131 40.2102C148.131 40.1907 148.13 40.1712 148.13 40.1516V32.1756L150.238 32.0128C150.289 31.9998 150.341 31.9888 150.393 31.9797C150.474 31.9656 150.549 31.9585 150.616 31.9585C150.619 31.9585 150.621 31.9585 150.623 31.9585C150.768 31.9593 150.885 31.9831 150.975 32.0302C151.058 32.0719 151.123 32.143 151.157 32.2298C151.21 32.3611 151.243 32.5212 151.257 32.71C151.262 32.7849 151.265 32.8601 151.265 32.9352V40.0431C151.265 40.111 151.258 40.1787 151.246 40.2455C151.222 40.3848 151.174 40.5434 151.103 40.7214C151.072 40.7996 151.024 40.8701 150.963 40.9281C150.902 40.9861 150.829 41.0301 150.749 41.0572C150.673 41.0865 150.586 41.1068 150.487 41.118C150.422 41.1251 150.357 41.1285 150.292 41.1283ZM162.02 41.1283H160.669C160.11 41.1283 159.822 40.8223 159.805 40.2102C159.805 40.1907 159.804 40.1712 159.804 40.1516V32.1756L161.912 32.0128H162.128C162.424 32.0128 162.63 32.0804 162.746 32.2157C162.757 32.2288 162.767 32.2426 162.777 32.257C162.825 32.3309 162.861 32.4118 162.885 32.4968C162.906 32.5709 162.921 32.6527 162.93 32.742C162.936 32.8062 162.939 32.8707 162.939 32.9352V40.0431C162.939 40.1109 162.933 40.1785 162.923 40.2455C162.903 40.3848 162.863 40.5434 162.804 40.7214C162.714 40.9926 162.453 41.1283 162.02 41.1283Z" fill="#C97212"/>
</g>
</svg>
